<?xml version="1.0" encoding="UTF-8" standalone="no"?>
<!-- Created with Inkscape (http://www.inkscape.org/) -->

<svg
   version="1.1"
   id="svg2"
   width="1333.3333"
   height="1333.3333"
   viewBox="0 0 1333.3333 1333.3333"
   sodipodi:docname="UOF.svg"
   inkscape:version="1.2.2 (b0a8486541, 2022-12-01)"
   xmlns:inkscape="http://www.inkscape.org/namespaces/inkscape"
   xmlns:sodipodi="http://sodipodi.sourceforge.net/DTD/sodipodi-0.dtd"
   xmlns="http://www.w3.org/2000/svg"
   xmlns:svg="http://www.w3.org/2000/svg">
  <defs
     id="defs6">
    <clipPath
       clipPathUnits="userSpaceOnUse"
       id="clipPath22">
      <path
         d="M 0,1000 H 1000 V 0 H 0 Z"
         id="path20" />
    </clipPath>
    <clipPath
       clipPathUnits="userSpaceOnUse"
       id="clipPath154">
      <path
         d="M 0,1000 H 1000 V 0 H 0 Z"
         id="path152" />
    </clipPath>
    <clipPath
       clipPathUnits="userSpaceOnUse"
       id="clipPath174">
      <path
         d="M 158,379.365 H 847 V 196.812 H 158 Z"
         id="path172" />
    </clipPath>
  </defs>
  <sodipodi:namedview
     id="namedview4"
     pagecolor="#ffffff"
     bordercolor="#000000"
     borderopacity="0.25"
     inkscape:showpageshadow="2"
     inkscape:pageopacity="0.0"
     inkscape:pagecheckerboard="0"
     inkscape:deskcolor="#d1d1d1"
     showgrid="false"
     inkscape:zoom="0.65775004"
     inkscape:cx="477.385"
     inkscape:cy="668.18696"
     inkscape:window-width="2068"
     inkscape:window-height="1002"
     inkscape:window-x="0"
     inkscape:window-y="0"
     inkscape:window-maximized="1"
     inkscape:current-layer="g8" />
  <g
     id="g8"
     inkscape:groupmode="layer"
     inkscape:label="UOF"
     transform="matrix(1.3333333,0,0,-1.3333333,0,1333.3333)">
    <path
       d="M 115,342 H 887 V 222 H 115 Z"
       style="fill:#b22121"
       id="path10" />
    <g
       id="g12"
       transform="translate(893,348)">
      <path
         d="m 0,0 h -12 -760 -12 v -12 -108 -12 h 12 760 12 v 12 108 z m -12,-120 h -760 v 108 h 760 z"
         style="fill:#ffffff"
         id="path14" />
    </g>
    <g
       id="g16">
      <g
         id="g18"
         clip-path="url(#clipPath22)">
        <g
           id="g24"
           transform="translate(35.5,221.9639)">
          <path
             d="m 0,0 c -2.481,0 -4.706,1.527 -5.599,3.842 -0.892,2.315 -0.267,4.94 1.572,6.605 L 51.414,60.65 -3.972,109.575 c -1.87,1.652 -2.523,4.288 -1.64,6.621 0.883,2.333 3.117,3.876 5.612,3.876 h 155 c 3.313,0 6,-2.686 6,-6 V 6 c 0,-3.313 -2.687,-6 -6,-6 z"
             style="fill:#b22121"
             id="path26" />
        </g>
        <g
           id="g28"
           transform="translate(190.5,348.0361)">
          <path
             d="m 0,0 h -155 c -4.989,0 -9.458,-3.087 -11.223,-7.753 -1.766,-4.666 -0.461,-9.938 3.279,-13.241 l 50.358,-44.483 -50.469,-45.7 c -3.678,-3.331 -4.926,-8.582 -3.142,-13.212 1.785,-4.63 6.235,-7.683 11.197,-7.683 H 0 c 6.627,0 12,5.373 12,12 V -12 C 12,-5.373 6.627,0 0,0 M 0,-12 V -120.072 H -155 L -94.586,-65.366 -155,-12 H 0"
             style="fill:#ffffff"
             id="path30" />
        </g>
        <g
           id="g32"
           transform="translate(810.3086,221.9639)">
          <path
             d="m 0,0 c -3.313,0 -6,2.687 -6,6 v 108.072 c 0,3.314 2.687,6 6,6 h 155 c 2.494,0 4.729,-1.543 5.611,-3.876 0.883,-2.333 0.231,-4.969 -1.638,-6.621 L 103.587,60.65 159.027,10.447 c 1.839,-1.665 2.464,-4.29 1.572,-6.605 C 159.706,1.527 157.481,0 155,0 Z"
             style="fill:#b22121"
             id="path34" />
        </g>
        <g
           id="g36"
           transform="translate(965.3086,324.0361)">
          <path
             d="m 0,0 h 0.006 z m 0,24 h -155 c -6.627,0 -12,-5.373 -12,-12 V -96.072 c 0,-6.627 5.373,-12 12,-12 H 0 c 4.962,0 9.412,3.053 11.197,7.683 1.785,4.63 0.536,9.881 -3.142,13.212 l -50.468,45.7 50.357,44.483 c 3.74,3.303 5.045,8.575 3.28,13.241 C 9.458,20.913 4.989,24 0,24 M 0,12 -60.413,-41.366 0,-96.072 H -155 V 12 H 0"
             style="fill:#ffffff"
             id="path38" />
        </g>
        <g
           id="g40"
           transform="translate(162,243.2451)">
          <path
             d="M 0,0 V 53.698 L 88.751,-31.324 Z"
             style="fill:#b22121"
             id="path42" />
        </g>
        <g
           id="g44"
           transform="translate(156,311)">
          <path
             d="m 0,0 v -72 l 119,-42 z M 12,-28.113 70.502,-84.157 12,-63.51 Z"
             style="fill:#ffffff"
             id="path46" />
        </g>
        <g
           id="g48"
           transform="translate(839,296.9434)">
          <path
             d="M 0,0 V -53.698 L -88.751,-85.022 Z"
             style="fill:#b22121"
             id="path50" />
        </g>
        <g
           id="g52"
           transform="translate(845,311)">
          <path
             d="M 0,0 -119,-114 0,-72 Z M -12,-28.113 V -63.51 l -58.502,-20.647 z"
             style="fill:#ffffff"
             id="path54" />
        </g>
        <g
           id="g56"
           transform="translate(500,114)">
          <path
             d="m 0,0 c -52.107,0 -102.659,10.207 -150.25,30.336 -45.966,19.442 -87.246,47.273 -122.693,82.721 -35.448,35.448 -63.279,76.727 -82.721,122.693 C -375.793,283.342 -386,333.893 -386,386 c 0,52.107 10.207,102.659 30.336,150.25 19.442,45.966 47.273,87.246 82.721,122.693 35.447,35.448 76.727,63.279 122.693,82.721 C -102.659,761.793 -52.107,772 0,772 c 52.107,0 102.658,-10.207 150.25,-30.336 45.966,-19.442 87.245,-47.273 122.693,-82.721 35.448,-35.447 63.279,-76.727 82.721,-122.693 C 375.793,488.659 386,438.107 386,386 386,333.893 375.793,283.342 355.664,235.75 336.222,189.784 308.391,148.505 272.943,113.057 237.495,77.609 196.216,49.778 150.25,30.336 102.658,10.207 52.107,0 0,0"
             style="fill:#ffffff"
             id="path58" />
        </g>
        <g
           id="g60"
           transform="translate(500,892)">
          <path
             d="m 0,0 c -52.915,0 -104.252,-10.366 -152.588,-30.81 -46.68,-19.744 -88.601,-48.007 -124.598,-84.004 -35.997,-35.997 -64.26,-77.918 -84.004,-124.598 C -381.634,-287.748 -392,-339.085 -392,-392 c 0,-52.914 10.366,-104.252 30.81,-152.588 19.744,-46.681 48.007,-88.601 84.004,-124.598 35.997,-35.997 77.918,-64.259 124.598,-84.003 C -104.252,-773.634 -52.915,-784 0,-784 c 52.914,0 104.252,10.366 152.588,30.811 46.681,19.744 88.601,48.006 124.598,84.003 35.997,35.997 64.259,77.917 84.003,124.598 20.445,48.336 30.811,99.674 30.811,152.588 0,52.915 -10.366,104.252 -30.811,152.588 -19.744,46.68 -48.006,88.601 -84.003,124.598 -35.997,35.997 -77.917,64.26 -124.598,84.004 C 104.252,-10.366 52.914,0 0,0 m 0,-12 c 209.868,0 380,-170.132 380,-380 0,-209.868 -170.132,-380 -380,-380 -209.868,0 -380,170.132 -380,380 0,209.868 170.132,380 380,380"
             style="fill:#ffffff"
             id="path62" />
        </g>
        <g
           id="g64"
           transform="translate(834.5,499.5)">
          <path
             style="color:#000000;fill:#b22121;stroke-miterlimit:10;-inkscape-stroke:none"
             d="m -334,-379.5 c -209.05285,0 -379.5,170.44715 -379.5,379.5 0,209.05285 170.44715,379.5 379.5,379.5 209.05285,0 379.5,-170.44715 379.5,-379.5 0,-209.05285 -170.44715,-379.5 -379.5,-379.5 z m 0,91 c 159.87278,0 288.5,128.62722 288.5,288.5 0,159.87278 -128.62722,288.5 -288.5,288.5 -159.87278,0 -288.5,-128.62722 -288.5,-288.5 0,-159.87278 128.62722,-288.5 288.5,-288.5 z"
             id="path66" />
        </g>
      </g>
    </g>
    <g
       aria-label="2"
       transform="matrix(0.96819644,-0.25019122,-0.25019122,-0.96819644,386.4205,156.6788)"
       id="text70"
       style="font-weight:900;font-size:78.8401px;font-family:'Noto Serif TC Black';-inkscape-font-specification:NotoSerifTC-Black;fill:#ffffff">
      <path
         d="m 11.116455,-9.6973327 c 3.626644,-3.2324443 7.253289,-6.2283683 9.776172,-8.2782113 14.585419,-11.510655 21.917549,-17.660183 21.917549,-26.096074 0,-9.381972 -5.755328,-16.162221 -18.212064,-16.162221 -10.564574,0 -19.4735053,5.045767 -20.1830662,14.112379 0.9460812,1.971002 2.8382437,3.232444 5.1246067,3.232444 2.4440435,0 5.0457665,-1.261442 5.9130075,-6.543729 l 1.734482,-7.80517 c 1.024922,-0.23652 2.049843,-0.31536 2.995924,-0.31536 6.070688,0 9.776173,4.888086 9.776173,12.693256 0,8.514731 -3.863165,13.718178 -12.456736,23.415511 -3.863165,4.415046 -8.2782109,9.381972 -12.8509369,14.3488987 V 0 H 44.150458 v -9.6973327 z"
         id="path231" />
    </g>
    <g
       aria-label="0"
       transform="matrix(0.99654927,-0.08300339,-0.08300339,-0.99654927,445.7379,142.5036)"
       id="text74"
       style="font-weight:900;font-size:78.8402px;font-family:'Noto Serif TC Black';-inkscape-font-specification:NotoSerifTC-Black;fill:#ffffff">
      <path
         d="m 15.45268,-29.565076 c 0,-22.075257 3.86317,-27.909431 8.514742,-27.909431 4.651571,0 8.672422,5.913015 8.672422,27.909431 0,22.154097 -4.020851,28.1459524 -8.672422,28.1459524 -4.651572,0 -8.514742,-5.9130152 -8.514742,-28.1459524 z m 8.514742,-30.668839 c -10.958789,0 -20.4984531,9.303144 -20.4984531,30.668839 0,21.5233754 9.5396641,30.9053594 20.4984531,30.9053594 10.879947,0 20.577292,-9.381984 20.577292,-30.9053594 0,-21.365695 -9.697345,-30.668839 -20.577292,-30.668839 z"
         id="path236" />
    </g>
    <g
       aria-label="2"
       transform="matrix(0.99654885,0.08300843,0.08300843,-0.99654885,506.3284,138.5413)"
       id="text78"
       style="font-weight:900;font-size:78.8402px;font-family:'Noto Serif TC Black';-inkscape-font-specification:NotoSerifTC-Black;fill:#ffffff">
      <path
         d="m 11.116469,-9.6973449 c 3.626649,-3.2324481 7.253298,-6.2283761 9.776185,-8.2782211 14.585437,-11.51067 21.917576,-17.660205 21.917576,-26.096107 0,-9.381984 -5.755335,-16.162242 -18.212087,-16.162242 -10.564587,0 -19.4735298,5.045773 -20.1830917,14.112397 0.9460825,1.971005 2.8382473,3.232448 5.1246132,3.232448 2.4440465,0 5.0457725,-1.261443 5.9130155,-6.543737 l 1.734484,-7.80518 c 1.024923,-0.23652 2.049845,-0.315361 2.995928,-0.315361 6.070695,0 9.776185,4.888093 9.776185,12.693273 0,8.514742 -3.86317,13.718195 -12.456752,23.41554 -3.86317,4.415051 -8.2782213,9.381984 -12.8509531,14.3489168 V 0 H 44.150513 v -9.6973449 z"
         id="path241" />
    </g>
    <g
       aria-label="2"
       transform="matrix(0.96855267,0.24880863,0.24880863,-0.96855267,566.9245,144.6698)"
       id="text82"
       style="font-weight:900;font-size:78.8401px;font-family:'Noto Serif TC Black';-inkscape-font-specification:NotoSerifTC-Black;fill:#ffffff">
      <path
         d="m 11.116455,-9.6973327 c 3.626644,-3.2324443 7.253289,-6.2283683 9.776172,-8.2782113 14.585419,-11.510655 21.917549,-17.660183 21.917549,-26.096074 0,-9.381972 -5.755328,-16.162221 -18.212064,-16.162221 -10.564574,0 -19.4735053,5.045767 -20.1830662,14.112379 0.9460812,1.971002 2.8382437,3.232444 5.1246067,3.232444 2.4440435,0 5.0457665,-1.261442 5.9130075,-6.543729 l 1.734482,-7.80517 c 1.024922,-0.23652 2.049843,-0.31536 2.995924,-0.31536 6.070688,0 9.776173,4.888086 9.776173,12.693256 0,8.514731 -3.863165,13.718178 -12.456736,23.415511 -3.863165,4.415046 -8.2782109,9.381972 -12.8509369,14.3488987 V 0 H 44.150458 v -9.6973327 z"
         id="path246" />
    </g>
    <g
       aria-label="U"
       transform="matrix(0.19656654,0.98049049,0.98049049,-0.19656654,193.3108,532.1976)"
       id="text86"
       style="font-weight:bold;font-size:64.6402px;font-family:'Libre Baskerville';-inkscape-font-specification:LibreBaskerville-Bold;fill:#ffffff">
      <path
         d="m 48.93263,-20.038461 q 0,5.494417 -1.228164,9.437469 -1.163524,3.8784114 -3.684491,6.3993791 -2.520968,2.5209678 -6.52866,3.68449132 -3.943052,1.16352356 -9.502109,1.16352356 -10.407072,0 -15.255087,-4.33089328 Q 7.9507443,-8.0800247 7.9507443,-17.646774 v -17.711414 q 0,-2.520968 -0.06464,-4.201613 -0.06464,-1.745285 -0.1939206,-2.908809 -0.1292804,-1.163523 -0.3878412,-1.874566 -0.1939205,-0.775682 -0.5171215,-1.292804 -0.5817618,-0.904962 -1.6806452,-1.228163 -1.0988833,-0.323201 -3.3612903,-0.323201 v -2.585608 H 24.951116 v 2.585608 q -2.714888,0 -4.007692,0.323201 -1.292804,0.25856 -2.003846,1.098883 -0.452481,0.517122 -0.775682,1.292804 -0.258561,0.711042 -0.452482,1.939206 -0.12928,1.163523 -0.19392,2.908809 -0.06464,1.745285 -0.06464,4.266253 v 16.935732 q 0,7.368982 3.10273,10.9241931 3.16737,3.4905706 9.69603,3.4905706 13.31588,0 13.31588,-14.8026057 v -14.931885 q 0,-2.714889 -0.12928,-4.654094 -0.06464,-1.939206 -0.323201,-3.296651 -0.193921,-1.357444 -0.581762,-2.262406 -0.323201,-0.904963 -0.840322,-1.486725 -0.904963,-0.904963 -2.327048,-1.292804 -1.422084,-0.452481 -3.943052,-0.452481 v -2.585608 h 20.943424 v 2.585608 q -2.391687,0 -3.684491,0.387841 -1.292804,0.323201 -2.003846,1.228164 -0.517122,0.581761 -0.840323,1.551364 -0.323201,0.904963 -0.517121,2.327047 -0.193921,1.357445 -0.323201,3.296651 -0.06464,1.939205 -0.06464,4.654094 z"
         id="path251" />
    </g>
    <g
       aria-label="N"
       transform="matrix(0.38989211,0.92086054,0.92086054,-0.38989211,205.3994,591.5027)"
       id="text90"
       style="font-weight:bold;font-size:64.6402px;font-family:'Libre Baskerville';-inkscape-font-specification:LibreBaskerville-Bold;fill:#ffffff">
      <path
         d="M 43.308932,0.64640198 14.673325,-40.141563 h -0.258561 v 27.795285 q 0,3.2320101 0.193921,5.1065759 0.25856,1.8745657 0.969603,2.9088089 0.775682,1.0342431 2.068486,1.3574441 1.357444,0.323201 3.490571,0.3878412 V 0 H 1.9392059 v -2.5856079 q 2.3916873,-0.06464 3.8137717,-0.3878412 1.4867245,-0.3878412 2.2624069,-1.3574441 0.8403226,-0.969603 1.0988834,-2.7148884 0.2585608,-1.8099255 0.2585608,-4.8480144 v -25.98536 q 0,-2.714888 -0.2585608,-4.460174 -0.2585608,-1.809925 -0.969603,-2.844168 -0.7110422,-1.034243 -2.0684863,-1.422085 -1.292804,-0.452481 -3.4905707,-0.581761 v -2.585608 H 20.620223 l 26.05,37.362034 h 0.258561 v -25.015756 q 0,-3.16737 -0.258561,-5.041936 -0.193921,-1.939206 -0.969603,-2.973449 -0.711042,-1.034243 -2.068487,-1.357444 -1.292803,-0.323201 -3.42593,-0.387841 v -2.585608 h 19.198139 v 2.585608 q -2.391688,0.06464 -3.878412,0.452481 -1.422084,0.323201 -2.262407,1.292804 -0.775682,0.969603 -1.034243,2.779528 -0.258561,1.809926 -0.258561,4.783375 V 0.64640198 Z"
         id="path256" />
    </g>
    <g
       aria-label="I"
       transform="matrix(0.52760391,0.8494905,0.8494905,-0.52760391,232.0959,650.4979)"
       id="text94"
       style="font-weight:bold;font-size:64.6402px;font-family:'Libre Baskerville';-inkscape-font-specification:LibreBaskerville-Bold;fill:#ffffff">
      <path
         d="M 25.403598,0 H 2.3270471 v -2.5856079 q 2.1977667,-0.06464 3.4905707,-0.3878412 1.3574442,-0.3878412 2.0684863,-1.3574441 0.7110422,-0.969603 0.969603,-2.7148884 0.2585608,-1.8099255 0.2585608,-4.8480144 v -25.98536 q 0,-2.714888 -0.2585608,-4.460174 -0.1939206,-1.809925 -0.8403226,-2.844168 -0.646402,-1.034243 -1.8745657,-1.422085 -1.1635236,-0.452481 -3.1673697,-0.581761 v -2.585608 H 24.757196 v 2.585608 q -2.003846,0.12928 -3.23201,0.581761 -1.163524,0.387842 -1.809926,1.422085 -0.646402,1.034243 -0.904962,2.844168 -0.193921,1.745286 -0.193921,4.460174 v 25.98536 q 0,3.0380889 0.193921,4.8480144 0.25856,1.7452854 0.969603,2.7148884 0.775682,0.9696029 2.068486,1.3574441 1.357444,0.323201 3.555211,0.3878412 z"
         id="path261" />
    </g>
    <g
       aria-label="V"
       transform="matrix(0.64394464,0.76507208,0.76507208,-0.64394464,248.4583,677.9364)"
       id="text98"
       style="font-weight:bold;font-size:64.6402px;font-family:'Libre Baskerville';-inkscape-font-specification:LibreBaskerville-Bold;fill:#ffffff">
      <path
         d="M 28.312407,-11.118114 36.715632,-32.6433 q 1.228164,-3.16737 1.939206,-5.171216 0.775683,-2.003846 1.163524,-3.29665 0.387841,-1.292804 0.517121,-2.068486 0.129281,-0.775682 0.129281,-1.486725 0,-1.551364 -1.163524,-2.003846 -1.163523,-0.517121 -4.654094,-0.517121 v -2.585608 h 18.357816 v 2.585608 q -5.365136,0 -7.433623,5.235856 L 28.570967,0.64640198 H 23.787593 L 8.3385855,-37.103474 q -1.2928039,-3.038089 -2.3270471,-4.977295 -1.0342432,-1.939206 -2.1977667,-3.038089 -1.1635236,-1.163524 -2.5856079,-1.551365 -1.3574442,-0.452481 -3.2320099,-0.452481 v -2.650248 H 22.430149 v 2.650248 q -1.680646,0.06464 -2.844169,0.19392 -1.098883,0.129281 -1.745285,0.452482 -0.646402,0.258561 -0.904963,0.775682 -0.258561,0.452482 -0.258561,1.163524 0,0.904963 0.323201,2.133126 0.323201,1.228164 0.969603,2.973449 z"
         id="path266" />
    </g>
    <g
       aria-label="E"
       transform="matrix(0.76959977,0.63852658,0.63852658,-0.76959977,284.786,720.376)"
       id="text102"
       style="font-weight:bold;font-size:64.6402px;font-family:'Libre Baskerville';-inkscape-font-specification:LibreBaskerville-Bold;fill:#ffffff">
      <path
         d="m 18.551737,-27.536724 q 4.136972,0 6.65794,-0.258561 2.520968,-0.258561 3.878412,-1.034243 1.422084,-0.840323 2.003846,-2.391688 0.581762,-1.551364 0.904963,-4.201612 h 2.391687 v 18.939578 h -2.391687 q -0.387841,-2.585608 -1.034243,-4.136973 -0.646402,-1.551365 -2.068487,-2.327047 -1.422084,-0.840323 -3.878411,-1.034243 -2.391688,-0.258561 -6.46402,-0.258561 v 13.315881 q 0,2.0684859 0.517121,3.4905703 0.581762,1.4220843 1.874566,2.3270471 1.292804,0.8403225 3.425931,1.2281637 2.133126,0.323201 5.235856,0.323201 3.684491,0 6.205459,-0.5171216 2.585607,-0.5171215 4.266253,-1.8099255 1.680645,-1.292804 2.714888,-3.4259305 1.034243,-2.1977665 1.745285,-5.4944165 h 2.585608 L 46.088461,0 H 2.2624069 v -2.5856079 q 2.1331265,-0.06464 3.4905707,-0.3878412 1.3574442,-0.323201 2.0684863,-1.0988834 0.7110422,-0.7756823 0.969603,-2.1977667 0.2585608,-1.4220843 0.2585608,-3.6844913 V -39.818362 q 0,-2.262407 -0.2585608,-3.619851 -0.1939206,-1.422084 -0.8403226,-2.197767 -0.646402,-0.840322 -1.8745657,-1.098883 -1.1635236,-0.323201 -3.1027295,-0.452481 v -2.585608 H 43.826054 l 0.452481,12.669478 h -2.779528 q -0.387841,-2.714888 -1.228164,-4.460173 -0.840322,-1.809926 -2.327047,-2.844169 -1.486724,-1.098883 -3.878412,-1.486724 -2.327047,-0.452482 -5.752977,-0.452482 h -7.304343 q -1.680645,0 -2.068486,0.452482 -0.387841,0.387841 -0.387841,1.939206 z"
         id="path271" />
    </g>
    <g
       aria-label="R"
       transform="matrix(0.87075844,0.49171104,0.49171104,-0.87075844,325.8909,754.216)"
       id="text106"
       style="font-weight:bold;font-size:64.6402px;font-family:'Libre Baskerville';-inkscape-font-specification:LibreBaskerville-Bold;fill:#ffffff">
      <path
         d="m 44.924937,-37.297394 q 0,5.365136 -3.102729,8.984987 -3.10273,3.619851 -9.88995,4.848015 l 14.996526,17.1942928 q 1.551364,1.8099256 3.684491,2.7795285 2.133126,0.9049628 4.330893,0.9049628 V 0 H 39.624441 L 23.593672,-19.65062 q -1.616005,-1.939206 -2.844169,-2.585608 -1.163523,-0.711042 -2.197766,-0.711042 v 12.669479 q 0,2.3916869 0.323201,3.9430516 0.323201,1.4867246 1.292804,2.3270471 0.969603,0.8403226 2.779528,1.1635236 1.874566,0.2585608 4.977295,0.2585608 V 0 H 2.2624069 v -2.5856079 q 2.1331265,0 3.4259305,-0.2585608 1.3574442,-0.323201 2.0684863,-1.0988834 0.7756824,-0.8403225 1.0342432,-2.2624069 0.2585608,-1.4867245 0.2585608,-3.7491315 V -39.818362 q 0,-2.262407 -0.1939206,-3.619851 -0.1939206,-1.422084 -0.8403226,-2.197767 -0.646402,-0.840322 -1.8745657,-1.098883 -1.1635236,-0.323201 -3.1673697,-0.452481 v -2.585608 H 25.338958 q 9.372828,0 14.479404,3.29665 5.106575,3.29665 5.106575,9.178908 z m -26.3732,10.471712 h 4.201613 q 6.076178,0 9.049627,-2.327047 3.03809,-2.391688 3.03809,-7.821464 0,-4.136973 -2.520968,-6.65794 -2.520968,-2.520968 -6.981141,-2.520968 H 19.71526 q -1.163523,0 -1.163523,1.098883 z"
         id="path276" />
    </g>
    <g
       aria-label="S"
       transform="matrix(0.94045424,0.33992033,0.33992033,-0.94045424,375.515,781.388)"
       id="text110"
       style="font-weight:bold;font-size:64.6401px;font-family:'Libre Baskerville';-inkscape-font-specification:LibreBaskerville-Bold;fill:#ffffff">
      <path
         d="m 3.4905653,-16.483225 h 2.5209639 q 0.9049613,6.140809 4.9126478,9.6960146 4.007686,3.4905654 9.889935,3.4905654 2.391683,0 4.395526,-0.5817609 2.003843,-0.5817609 3.425926,-1.6160025 1.422082,-1.0988817 2.197763,-2.5209638 0.775681,-1.4867223 0.775681,-3.2966448 0,-1.551363 -0.517121,-2.650244 -0.45248,-1.163522 -1.809922,-2.197764 -1.357442,-1.098881 -3.749126,-2.197763 -2.327044,-1.098882 -6.076169,-2.520964 -7.562892,-2.908804 -11.1827374,-6.72257 -3.6198455,-3.878406 -3.6198455,-9.114254 0,-3.038085 1.1635218,-5.559048 1.1635217,-2.520964 3.2320049,-4.330887 2.1331232,-1.809923 5.0419272,-2.779524 2.973445,-1.034242 6.52865,-1.034242 3.296645,0 6.20545,1.034242 2.908804,1.034241 5.752969,3.102724 l 1.163521,-3.232005 h 1.551363 l 0.711041,13.962262 h -2.520964 q -1.551362,-5.300488 -4.848007,-8.080013 -3.296645,-2.844164 -7.627532,-2.844164 -4.007686,0 -6.52865,2.003843 -2.456324,1.939203 -2.456324,5.041928 0,1.357442 0.452481,2.456324 0.452481,1.034241 1.680643,2.003843 1.228161,0.969601 3.361285,2.003843 2.133123,0.969601 5.494408,2.197763 4.524807,1.745283 7.692172,3.555206 3.232005,1.745282 5.235848,3.813765 2.068483,2.003843 3.038084,4.266247 0.969602,2.262403 0.969602,4.977287 0,3.296645 -1.422082,6.0115296 -1.422082,2.7148841 -4.007686,4.6540871 -2.520964,1.9392029 -6.07617,3.03808461 -3.490565,1.09888168 -7.756811,1.09888168 -3.878406,0 -6.981131,-1.03424158 Q 10.600976,-1.4867223 7.3043311,-3.8784059 L 6.0115292,0 H 4.4601668 Z"
         id="path281" />
    </g>
    <g
       aria-label="I"
       transform="matrix(0.97620056,0.21686969,0.21686969,-0.97620056,420.1153,796.7004)"
       id="text114"
       style="font-weight:bold;font-size:64.6402px;font-family:'Libre Baskerville';-inkscape-font-specification:LibreBaskerville-Bold;fill:#ffffff">
      <path
         d="M 25.403598,0 H 2.3270471 v -2.5856079 q 2.1977667,-0.06464 3.4905707,-0.3878412 1.3574442,-0.3878412 2.0684863,-1.3574441 0.7110422,-0.969603 0.969603,-2.7148884 0.2585608,-1.8099255 0.2585608,-4.8480144 v -25.98536 q 0,-2.714888 -0.2585608,-4.460174 -0.1939206,-1.809925 -0.8403226,-2.844168 -0.646402,-1.034243 -1.8745657,-1.422085 -1.1635236,-0.452481 -3.1673697,-0.581761 v -2.585608 H 24.757196 v 2.585608 q -2.003846,0.12928 -3.23201,0.581761 -1.163524,0.387842 -1.809926,1.422085 -0.646402,1.034243 -0.904962,2.844168 -0.193921,1.745286 -0.193921,4.460174 v 25.98536 q 0,3.0380889 0.193921,4.8480144 0.25856,1.7452854 0.969603,2.7148884 0.775682,0.9696029 2.068486,1.3574441 1.357444,0.323201 3.555211,0.3878412 z"
         id="path286" />
    </g>
    <g
       aria-label="T"
       transform="matrix(0.99732007,0.07316198,0.07316198,-0.99732007,451.1706,804.2473)"
       id="text118"
       style="font-weight:bold;font-size:64.6401px;font-family:'Libre Baskerville';-inkscape-font-specification:LibreBaskerville-Bold;fill:#ffffff">
      <path
         d="m 52.68168,-35.552054 h -2.779524 q -0.19392,-3.167365 -0.969601,-5.235848 -0.711041,-2.133123 -2.068484,-3.361285 -1.357442,-1.292802 -3.296645,-1.745283 -1.939203,-0.517121 -4.524806,-0.517121 -2.520964,0 -4.072327,0.12928 -1.486722,0.06464 -2.327043,0.323201 -0.775681,0.19392 -1.034242,0.581761 -0.25856,0.38784 -0.25856,0.969601 v 33.871412 q 0,2.0684831 0.25856,3.5552054 0.323201,1.4867222 1.228162,2.4563237 0.904961,0.9049614 2.650244,1.4220822 1.745283,0.4524807 4.589447,0.5171208 V 0 H 12.99266 v -2.5856039 q 2.908804,-0.06464 4.654087,-0.5171208 1.745283,-0.5171208 2.650244,-1.4220822 0.969601,-0.9696015 1.228162,-2.4563237 0.3232,-1.4867223 0.3232,-3.5552054 v -33.871412 q 0,-0.581761 -0.25856,-0.969601 -0.19392,-0.387841 -0.904961,-0.581761 -0.711042,-0.25856 -2.068484,-0.323201 -1.292802,-0.12928 -3.425925,-0.12928 -2.327043,0 -4.460167,0.258561 -2.1331229,0.19392 -3.7491254,1.292802 -1.6160024,1.034241 -2.650244,3.232005 -0.9696015,2.133123 -1.0342416,6.076169 H 0.77568118 L 1.4220822,-49.772876 H 52.035279 Z"
         id="path291" />
    </g>
    <g
       aria-label="Y"
       transform="matrix(0.99429775,-0.10663953,-0.10663953,-0.99429775,508.3098,807.9038)"
       id="text122"
       style="font-weight:bold;font-size:64.6402px;font-family:'Libre Baskerville';-inkscape-font-specification:LibreBaskerville-Bold;fill:#ffffff">
      <path
         d="m 6.52866,-41.628287 q -0.969603,-1.680645 -1.8099256,-2.779529 -0.7756823,-1.098883 -1.6160049,-1.680645 -0.8403226,-0.646402 -1.8099255,-0.840323 -0.96960301,-0.25856 -2.19776677,-0.25856 v -2.585608 H 20.814144 v 2.585608 q -2.714889,0 -3.813772,0.517121 -1.098883,0.517122 -1.098883,1.551365 0,0.646402 0.387841,1.551365 0.387841,0.904962 1.228164,2.456327 l 9.243548,17.646774 h 0.258561 l 8.144665,-13.574441 q 2.133126,-3.619851 2.973449,-5.365137 0.840322,-1.809925 0.840322,-2.844168 0,-1.098884 -1.034243,-1.486725 -0.969603,-0.452481 -3.684491,-0.452481 v -2.585608 h 16.224689 v 2.585608 q -1.422084,0 -2.585607,0.452481 -1.163524,0.452481 -2.456328,1.809926 -1.228164,1.292804 -2.844169,3.684491 -1.551364,2.327047 -3.749131,6.140819 l -9.437469,16.160049 v 6.5933 q 0,3.2320101 0.258561,5.171216 0.323201,1.939206 1.034243,2.9734491 0.775682,0.969603 2.068486,1.292804 1.292804,0.323201 3.361291,0.323201 V 0 H 13.12196 v -2.5856079 q 2.003846,0 3.29665,-0.323201 1.357444,-0.323201 2.133127,-1.292804 0.775682,-0.9696029 1.034243,-2.7795285 0.323201,-1.8745657 0.323201,-4.9126546 v -5.946899 z"
         id="path296" />
    </g>
    <g
       aria-label="O"
       transform="matrix(0.93205085,-0.36232748,-0.36232748,-0.93205085,582.553,797.2535)"
       id="text126"
       style="font-weight:bold;font-size:64.6401px;font-family:'Libre Baskerville';-inkscape-font-specification:LibreBaskerville-Bold;fill:#ffffff">
      <path
         d="m 30.510127,-50.419277 q 5.817608,0 10.859536,2.003843 5.041928,2.003843 8.726413,5.494409 3.749126,3.490565 5.882249,8.209292 2.133124,4.718727 2.133124,10.213136 0,5.235848 -2.197764,9.825295 -2.133123,4.589447 -5.882249,8.0153718 -3.684485,3.3612852 -8.726413,5.3651282 -5.041928,1.93920299 -10.794896,1.93920299 -5.752969,0 -10.794897,-1.93920299 -5.041928,-2.003843 -8.791053,-5.3651282 -3.7491261,-3.4259248 -5.8822493,-8.0153718 -2.1331233,-4.589447 -2.1331233,-9.825295 0,-5.494409 2.1331233,-10.213136 2.1331232,-4.718727 5.8176093,-8.209292 3.749125,-3.490566 8.791053,-5.494409 5.041928,-2.003843 10.859537,-2.003843 z m 0,46.8640716 q 3.749125,0 6.78721,-1.4220822 3.038085,-1.4867223 5.171208,-4.1369663 2.133123,-2.7148841 3.232005,-6.5286501 1.163521,-3.878406 1.163521,-8.661773 0,-5.041928 -1.163521,-9.049614 -1.098882,-4.072326 -3.232005,-6.91649 -2.133123,-2.908805 -5.171208,-4.395527 -3.038085,-1.551362 -6.78721,-1.551362 -3.813766,0 -6.851851,1.551362 -2.973444,1.486722 -5.106568,4.395527 -2.133123,2.844164 -3.296645,6.91649 -1.098881,4.007686 -1.098881,9.049614 0,4.783367 1.098881,8.661773 1.163522,3.813766 3.296645,6.5286501 2.133124,2.650244 5.106568,4.1369663 3.038085,1.4220822 6.851851,1.4220822 z"
         id="path301" />
    </g>
    <g
       aria-label="F"
       transform="matrix(0.85130452,-0.5246719,-0.5246719,-0.85130452,642.459,772.8105)"
       id="text130"
       style="font-weight:bold;font-size:64.6402px;font-family:'Libre Baskerville';-inkscape-font-specification:LibreBaskerville-Bold;fill:#ffffff">
      <path
         d="m 18.551737,-10.407072 q 0,2.4563277 0.323201,4.0076924 0.323201,1.4867246 1.292804,2.3270471 1.034243,0.7756824 2.844168,1.0988834 1.874566,0.323201 4.977296,0.3878412 V 0 H 2.2624069 v -2.5856079 q 2.1331265,-0.06464 3.4905707,-0.3878412 1.3574442,-0.323201 2.0684863,-1.0988834 0.7110422,-0.7756823 0.969603,-2.1977667 0.2585608,-1.4220843 0.2585608,-3.6844913 V -39.818362 q 0,-2.262407 -0.2585608,-3.619851 -0.1939206,-1.422084 -0.8403226,-2.197767 -0.646402,-0.840322 -1.8745657,-1.098883 -1.1635236,-0.323201 -3.1027295,-0.452481 v -2.585608 H 42.53325 l 0.775682,13.639081 h -2.714888 q -0.387841,-2.779528 -1.163523,-4.654094 -0.711043,-1.939206 -2.068487,-3.102729 -1.357444,-1.228164 -3.49057,-1.745286 -2.133127,-0.517121 -5.235856,-0.517121 H 19.71526 q -1.163523,0 -1.163523,1.098883 v 18.681017 q 3.943052,0 6.399379,-0.323201 2.520968,-0.323201 4.007693,-1.228163 1.486724,-0.969603 2.133126,-2.585608 0.646402,-1.616005 0.904963,-4.266253 h 2.391687 v 20.232382 h -2.391687 q -0.387841,-2.714889 -1.098883,-4.330894 -0.711043,-1.680645 -2.197767,-2.520967 -1.422085,-0.904963 -3.878412,-1.228164 -2.456328,-0.323201 -6.270099,-0.323201 z"
         id="path306" />
    </g>
    <g
       aria-label="F"
       transform="matrix(0.70840046,-0.70581073,-0.70581073,-0.70840046,700.9506,733.2242)"
       id="text134"
       style="font-weight:bold;font-size:64.6401px;font-family:'Libre Baskerville';-inkscape-font-specification:LibreBaskerville-Bold;fill:#ffffff">
      <path
         d="m 18.551708,-10.407056 q 0,2.4563239 0.323201,4.0076862 0.3232,1.4867223 1.292802,2.3270436 1.034241,0.7756812 2.844164,1.0988817 1.874563,0.3232005 4.977288,0.3878406 V 0 H 2.2624035 V -2.5856039 Q 4.3955267,-2.650244 5.7529688,-2.9734445 7.1104108,-3.296645 7.8214519,-4.0723262 8.532493,-4.8480074 8.7910534,-6.2700896 9.0496138,-7.6921717 9.0496138,-9.9545752 V -39.818301 q 0,-2.262403 -0.2585604,-3.619845 -0.1939203,-1.422082 -0.8403213,-2.197764 -0.646401,-0.840321 -1.8745628,-1.098881 -1.1635218,-0.323201 -3.1027248,-0.452481 v -2.585604 H 42.533185 l 0.775681,13.639061 h -2.714884 q -0.387841,-2.779524 -1.163522,-4.654087 -0.711041,-1.939203 -2.068483,-3.102725 -1.357442,-1.228162 -3.490565,-1.745283 -2.133124,-0.51712 -5.235848,-0.51712 H 19.71523 q -1.163522,0 -1.163522,1.098881 v 18.680989 q 3.943046,0 6.39937,-0.323201 2.520964,-0.3232 4.007686,-1.228162 1.486722,-0.969601 2.133123,-2.585604 0.646401,-1.616002 0.904962,-4.266246 h 2.391683 v 20.232351 h -2.391683 q -0.387841,-2.714884 -1.098882,-4.330887 -0.711041,-1.680642 -2.197763,-2.520964 -1.422082,-0.904961 -3.878406,-1.228162 -2.456324,-0.3232 -6.27009,-0.3232 z"
         id="path311" />
    </g>
    <g
       aria-label="O"
       transform="matrix(0.56687163,-0.82380614,-0.82380614,-0.56687163,735.5029,699.3611)"
       id="text138"
       style="font-weight:bold;font-size:64.6402px;font-family:'Libre Baskerville';-inkscape-font-specification:LibreBaskerville-Bold;fill:#ffffff">
      <path
         d="m 30.510173,-50.419354 q 5.817618,0 10.859554,2.003846 5.041935,2.003846 8.726426,5.494417 3.749132,3.49057 5.882258,8.209305 2.133127,4.718734 2.133127,10.213151 0,5.235856 -2.197767,9.82531 -2.133126,4.589454 -5.882258,8.0153846 -3.684491,3.3612903 -8.726427,5.3651364 -5.041935,1.93920598 -10.794913,1.93920598 -5.752977,0 -10.794913,-1.93920598 -5.041935,-2.0038461 -8.791067,-5.3651364 -3.749131,-3.4259306 -5.8822576,-8.0153846 -2.1331265,-4.589454 -2.1331265,-9.82531 0,-5.494417 2.1331265,-10.213151 2.1331266,-4.718735 5.8176176,-8.209305 3.749132,-3.490571 8.791067,-5.494417 5.041936,-2.003846 10.859553,-2.003846 z m 0,46.8641431 q 3.749132,0 6.787221,-1.4220843 3.038089,-1.4867246 5.171216,-4.1369727 2.133126,-2.7148881 3.23201,-6.5286601 1.163523,-3.878412 1.163523,-8.661786 0,-5.041936 -1.163523,-9.049628 -1.098884,-4.072332 -3.23201,-6.916501 -2.133127,-2.908809 -5.171216,-4.395534 -3.038089,-1.551364 -6.787221,-1.551364 -3.813771,0 -6.851861,1.551364 -2.973449,1.486725 -5.106575,4.395534 -2.133127,2.844169 -3.29665,6.916501 -1.098884,4.007692 -1.098884,9.049628 0,4.783374 1.098884,8.661786 1.163523,3.813772 3.29665,6.5286601 2.133126,2.6502481 5.106575,4.1369727 3.03809,1.4220843 6.851861,1.4220843 z"
         id="path316" />
    </g>
    <g
       aria-label="O"
       transform="matrix(0.38367763,-0.92346709,-0.92346709,-0.38367763,771.7722,645.976)"
       id="text142"
       style="font-weight:bold;font-size:64.6402px;font-family:'Libre Baskerville';-inkscape-font-specification:LibreBaskerville-Bold;fill:#ffffff">
      <path
         d="m 30.510173,-50.419354 q 5.817618,0 10.859554,2.003846 5.041935,2.003846 8.726426,5.494417 3.749132,3.49057 5.882258,8.209305 2.133127,4.718734 2.133127,10.213151 0,5.235856 -2.197767,9.82531 -2.133126,4.589454 -5.882258,8.0153846 -3.684491,3.3612903 -8.726427,5.3651364 -5.041935,1.93920598 -10.794913,1.93920598 -5.752977,0 -10.794913,-1.93920598 -5.041935,-2.0038461 -8.791067,-5.3651364 -3.749131,-3.4259306 -5.8822576,-8.0153846 -2.1331265,-4.589454 -2.1331265,-9.82531 0,-5.494417 2.1331265,-10.213151 2.1331266,-4.718735 5.8176176,-8.209305 3.749132,-3.490571 8.791067,-5.494417 5.041936,-2.003846 10.859553,-2.003846 z m 0,46.8641431 q 3.749132,0 6.787221,-1.4220843 3.038089,-1.4867246 5.171216,-4.1369727 2.133126,-2.7148881 3.23201,-6.5286601 1.163523,-3.878412 1.163523,-8.661786 0,-5.041936 -1.163523,-9.049628 -1.098884,-4.072332 -3.23201,-6.916501 -2.133127,-2.908809 -5.171216,-4.395534 -3.038089,-1.551364 -6.787221,-1.551364 -3.813771,0 -6.851861,1.551364 -2.973449,1.486725 -5.106575,4.395534 -2.133127,2.844169 -3.29665,6.916501 -1.098884,4.007692 -1.098884,9.049628 0,4.783374 1.098884,8.661786 1.163523,3.813772 3.29665,6.5286601 2.133126,2.6502481 5.106575,4.1369727 3.03809,1.4220843 6.851861,1.4220843 z"
         id="path321" />
    </g>
    <g
       aria-label="L"
       transform="matrix(0.20296972,-0.97918502,-0.97918502,-0.20296972,795.7149,585.9409)"
       id="text146"
       style="font-weight:bold;font-size:64.6402px;font-family:'Libre Baskerville';-inkscape-font-specification:LibreBaskerville-Bold;fill:#ffffff">
      <path
         d="M 46.799503,0 H 2.2624069 v -2.5856079 q 2.1331265,-0.06464 3.4905707,-0.3878412 1.3574442,-0.323201 2.0684863,-1.0988834 0.7110422,-0.7756823 0.969603,-2.1977667 0.2585608,-1.4220843 0.2585608,-3.6844913 V -39.818362 q 0,-2.262407 -0.2585608,-3.619851 -0.1939206,-1.422084 -0.8403226,-2.197767 -0.646402,-0.840322 -1.8745657,-1.098883 -1.1635236,-0.323201 -3.1027295,-0.452481 v -2.585608 H 25.274317 v 2.585608 q -2.197766,0.06464 -3.555211,0.387841 -1.292804,0.323201 -2.003846,1.163523 -0.711042,0.840323 -0.969603,2.327048 -0.19392,1.486724 -0.19392,3.943052 v 27.084242 q 0,2.7148887 0.517121,4.4601741 0.581762,1.6806451 1.939206,2.6502481 1.357444,0.9049627 3.619851,1.2928039 2.262407,0.323201 5.623698,0.323201 3.749131,0 6.270099,-0.4524814 2.520967,-0.4524813 4.201613,-1.6806451 1.745285,-1.292804 2.779528,-3.4259305 1.034243,-2.1331261 1.745285,-5.5590571 h 2.585608 z"
         id="path326" />
    </g>
    <g
       id="g148">
      <g
         id="g150"
         clip-path="url(#clipPath154)">
        <g
           id="g156"
           transform="translate(417.1177,479.0264)">
          <path
             d="m 0,0 c 7.628,0.977 19.48,0.131 26.338,-3.412 4.558,-2.365 9.138,-8.525 2.887,-11.917 -4.244,-2.315 -10.717,0.846 -15.043,1.923 -5.835,1.459 -12.825,1.066 -18.234,-1.631 -4.872,-2.415 -7.992,-5.385 -11.224,-9.683 -2.786,-3.693 -5.338,-8.997 -11.001,-7.719 -6.929,1.56 -3.404,10.93 -0.982,14.765 C -20.482,-6.965 -12.247,-2.274 0,0 m 113.476,34.13 c 14.881,2.456 32.467,-5.475 41.067,-17.583 3.049,-4.298 12.591,-21.982 2.421,-23.783 -7.861,-1.39 -9.127,11.132 -16.339,18.66 -4.742,4.941 -11.305,8.474 -18.052,9.692 -3.728,0.664 -8.905,0.071 -12.044,1.781 -5.795,3.171 -3.961,8.908 2.947,11.233 m -69.917,80.589 c 9.624,1.319 17.444,0.353 26.338,-3.603 3.414,-1.51 8.195,-4.187 9.279,-8.021 1.185,-4.248 -2.3,-6.865 -6.24,-6.885 -9.35,-0.04 -15.347,8.968 -28.364,5.244 -5.602,-1.59 -10.029,-5.576 -14.182,-9.421 -2.452,-2.264 -5.348,-5.314 -9.066,-4.66 -7.02,1.238 -4.093,9.954 -1.418,13.719 5.227,7.347 15.043,11.715 23.653,13.627 m 89.204,48.686 c 14.932,3.684 39.761,-3.05 50.144,-14.443 3.373,-3.694 7.882,-9.914 8.337,-15.007 0.416,-4.498 -1.995,-7.749 -6.869,-6.713 -3.929,0.836 -6.057,4.791 -8.346,7.72 -3.495,4.438 -6.088,6.934 -10.91,9.974 -5.896,3.714 -16.32,6.563 -23.299,7.207 h -8.084 c -3.626,0.835 -5.592,3.17 -4.751,6.934 0.608,2.677 1.682,3.06 3.778,4.328 M -43.021,-86.897 h -10.037 c -6.824,0.119 -6.524,1.754 -10.177,9.971 -4.504,10.124 -7.757,17.65 -10.124,30.233 -4.583,24.363 -3.319,49.58 3.852,73.319 8.277,27.401 21.474,45.325 37.156,65.979 29.438,38.773 67.668,71.692 112.785,91.029 15.125,6.482 35.791,12.934 52.191,14.639 h 8.749 l 6.043,0.701 c 26.983,0 54.258,-11.719 72.348,-31.684 22.198,-24.498 29.894,-62.826 19.641,-94.069 -3.637,-11.069 -8.23,-19.735 -15.34,-29.022 -5.127,-6.705 -14.968,-15.601 -18.13,-23.017 -2.519,-5.914 -2.186,-10.778 -2.115,-17.012 l 1.933,-24.019 -0.754,-7.005 c -1.391,-14.2 -3.285,-25.398 -7.898,-39.028 -1.269,-3.763 -6.062,-18.183 -8.812,-19.995 -1.884,-1.241 -5.41,-1.02 -7.635,-1.02 h -8.058 l 10.203,21.015 c 3.646,8.466 7.04,20.896 8.491,30.022 3.273,20.586 -0.594,26.37 -0.564,45.033 0.04,24.409 11.119,28.661 24.012,46.035 8.611,11.588 16.105,29.491 16.276,44.032 0.142,12.079 -0.855,19.564 -5.086,31.023 -3.434,9.287 -7.322,16.332 -13.668,24.018 -5.761,6.985 -12.056,12.669 -19.519,17.813 -32.493,22.366 -75.35,13.139 -108.78,-2.112 C 38.547,149.267 -3.071,110.858 -31.203,70.218 L -43.5,52.205 C -53.734,35.103 -64.068,5.12 -64.098,-14.845 v -7.232 c 0.171,-14.011 6.323,-35.202 12.366,-47.867 z"
             style="fill:#b22121"
             id="path158" />
        </g>
        <g
           id="g160"
           transform="translate(839.5,247.875)">
          <path
             d="M 0,0 C -51.235,21.216 -211.331,28.875 -339,28.875 -466.668,28.875 -626.765,21.216 -678,0 v 115.146 c 34.419,20.616 170.148,34.355 341.397,34.355 168.569,0 302.358,-13.353 336.603,-33.391 z"
             style="fill:#b22121"
             id="path162" />
        </g>
        <g
           id="g164"
           transform="translate(502.8965,402.876)">
          <path
             d="m 0,0 c -155.791,0 -312.22,-12.25 -346.896,-36.876 v -127 c 34.5,21.5 189.5,32.25 344.5,32.25 155,0 310,-10.75 344.5,-32.25 v 128 C 307.78,-11.999 154.203,0 0,0 m 0.001,-11 c 78.968,0 155.305,-3.173 214.948,-8.934 73.755,-7.123 103.874,-16.18 116.155,-22.249 v -104.97 c -23.132,7.647 -61.69,13.825 -115.12,18.424 -60.698,5.225 -138.255,8.103 -218.38,8.103 -80.127,0 -157.683,-2.878 -218.381,-8.103 -53.43,-4.599 -91.988,-10.777 -115.119,-18.424 v 104.044 c 12.334,6.247 42.826,15.611 118.099,22.958 C -157.335,-14.25 -79.986,-11 0.001,-11"
             style="fill:#ffffff"
             id="path166" />
        </g>
        <g
           id="g168">
          <g
             id="g170" />
          <g
             id="g194">
            <g
               clip-path="url(#clipPath174)"
               opacity="0.979996"
               id="g192">
              <g
                 aria-label="愚"
                 transform="matrix(0.99648607,0.08375861,0.08375861,-0.99648607,261.8843,291.6982)"
                 id="text178"
                 style="font-weight:900;font-size:87px;font-family:'Noto Serif TC Black';-inkscape-font-specification:NotoSerifTC-Black;fill:#ffffff">
                <path
                   d="m 20.706,-38.367 h 16.965 v 5.916 c -7.221,0.087 -13.137,0 -16.965,-0.087 z m 6.264,-8.787 h 10.701 v 6.351 H 21.924 l -4.437,-1.914 c 4.698,-0.261 9.483,-2.61 9.483,-3.567 z m 10.701,-19.227 v 7.308 H 26.97 v -7.308 z m 21.837,0 v 7.308 h -9.657 v -7.308 z M 37.671,-49.59 H 26.97 v -7.047 h 10.701 z m 12.18,-7.047 h 9.657 v 7.047 h -9.657 z m 15.486,15.834 H 49.851 v -6.351 h 9.657 v 2.871 h 2.175 c 2.784,0 6.525,-1.131 8.613,-2.001 z m -39.063,18.792 c 0.87,-0.174 1.827,-0.696 2.436,-1.827 12.18,-2.61 20.793,-4.611 27.144,-6.264 0.522,1.218 0.957,2.436 1.131,3.654 8.439,5.481 15.573,-10.875 -5.307,-11.136 l -0.696,0.522 c 1.305,1.131 2.61,2.784 3.654,4.611 h -4.785 v -5.916 h 16.356 v 12.18 c 0,1.044 -0.348,1.566 -1.566,1.566 -1.74,0 -10.092,-0.522 -10.092,-0.522 v 0.957 c 4.524,0.783 6.003,1.827 7.221,3.045 1.392,1.305 1.653,3.393 1.914,6.264 12.789,-0.87 14.703,-4.35 14.703,-10.353 v -11.136 c 1.827,-0.348 2.958,-1.218 3.48,-1.914 l -11.136,-8.265 c 0.696,-0.348 1.131,-0.609 1.131,-0.783 V -64.38 c 1.827,-0.435 2.958,-1.218 3.48,-1.914 l -11.31,-8.439 -5.394,5.916 H 27.753 l -12.702,-4.785 v 29.754 l -6.438,-2.784 v 5.829 H 5.307 l 0.783,2.436 h 2.523 v 23.751 h 2.262 c 1.218,0 2.349,-0.087 3.306,-0.348 -0.087,3.741 -2.958,6.96 -5.568,8.178 -3.132,1.305 -5.307,3.915 -4.437,7.482 1.044,3.741 5.307,5.046 8.526,3.393 4.524,-2.088 7.221,-9.309 2.871,-19.314 3.306,-0.957 5.133,-2.61 5.133,-3.045 v -13.92 z m 13.137,0.609 c 2.523,3.654 4.698,9.135 4.872,14.094 9.396,7.83 19.923,-10.527 -4.176,-14.529 z m 25.056,7.395 h -0.87 c -2.262,5.046 -3.828,8.091 -5.046,9.57 -0.783,0.87 -1.392,1.131 -2.958,1.218 -1.566,0.087 -4.785,0.087 -7.743,0.087 H 37.236 c -2.958,0 -3.306,-0.348 -3.306,-1.479 v -11.397 c 1.827,-0.261 2.61,-0.957 2.784,-2.175 l -15.399,-1.131 v 16.617 c 0,7.656 2.784,9.396 13.92,9.396 h 11.136 c 18.009,0 22.794,-1.131 22.794,-6.264 0,-2.088 -0.87,-3.393 -4.437,-4.698 z m 2.697,-0.783 c 3.219,4.437 5.568,10.962 5.394,16.878 10.179,9.048 21.663,-11.658 -4.698,-17.313 z"
                   id="path337" />
              </g>
              <g
                 aria-label="笨"
                 transform="matrix(0.99970741,0.02418852,0.02418852,-0.99970741,391.1367,300.9131)"
                 id="text182"
                 style="font-weight:900;font-size:87px;font-family:'Noto Serif TC Black';-inkscape-font-specification:NotoSerifTC-Black;fill:#ffffff">
                <path
                   d="M 65.25,-39.933 H 49.59 v -6.612 c 2.436,-0.348 3.045,-1.305 3.219,-2.523 L 36.975,-50.46 v 10.527 H 6.873 l 0.696,2.436 h 22.185 c -4.959,11.571 -13.92,24.534 -24.969,32.712 l 0.696,0.957 C 18.27,-9.135 29.145,-16.443 36.975,-25.404 v 14.355 H 23.751 l 0.696,2.436 H 36.975 V 8.091 h 2.262 c 4.872,0 10.353,-2.436 10.353,-3.48 V -8.613 h 11.223 c 1.218,0 2.175,-0.435 2.349,-1.392 -3.48,-3.132 -9.309,-7.569 -9.309,-7.569 l -4.263,5.394 v -24.186 c 4.524,13.659 12.093,25.578 22.794,32.451 0.522,-5.307 4.002,-9.744 9.831,-12.876 l 0.174,-1.305 C 70.992,-20.967 58.029,-26.883 51.33,-37.497 h 28.623 c 1.218,0 2.175,-0.435 2.436,-1.392 C 78.3,-42.543 71.34,-47.937 71.34,-47.937 Z m -42.804,-18.27 c 1.566,2.262 2.958,6.09 2.871,9.57 8.178,6.873 18.792,-8.352 -2.175,-10.005 z m 34.452,0.087 c 2.001,2.262 3.654,6.177 3.654,9.657 8.874,6.786 18.792,-9.744 -2.958,-10.092 z m 11.658,-5.046 H 58.029 c 1.218,-1.392 2.436,-2.871 3.48,-4.437 2.001,0.087 3.219,-0.609 3.654,-1.653 l -15.747,-5.655 c -0.783,4.089 -1.914,8.178 -3.219,11.919 -3.306,-3.132 -8.004,-7.047 -8.004,-7.047 l -5.046,6.873 h -7.656 c 1.044,-1.392 2.001,-2.871 2.871,-4.437 2.001,0.087 3.219,-0.609 3.567,-1.74 l -16.095,-5.307 c -2.871,11.745 -8.7,23.229 -14.355,30.276 l 0.783,0.783 c 8.004,-3.741 15.312,-9.222 21.489,-17.139 h 21.054 c 0.174,0 0.348,0 0.522,0 -1.218,3.045 -2.61,5.829 -4.002,8.091 l 0.87,0.696 c 4.785,-2.001 9.483,-4.872 13.485,-8.787 h 25.839 c 1.305,0 2.175,-0.435 2.436,-1.392 -3.741,-3.306 -9.918,-8.178 -9.918,-8.178 z"
                   id="path342" />
              </g>
              <g
                 aria-label="大"
                 transform="matrix(0.99979209,-0.02039081,-0.02039081,-0.99979209,520.9326,303.0898)"
                 id="text186"
                 style="font-weight:900;font-size:87px;font-family:'Noto Serif TC Black';-inkscape-font-specification:NotoSerifTC-Black;fill:#ffffff">
                <path
                   d="m 82.041,-45.327 c 1.305,0 2.349,-0.435 2.61,-1.392 -4.872,-4.089 -12.963,-10.179 -12.963,-10.179 l -7.221,9.135 H 47.676 c 0.609,-7.047 0.696,-14.442 0.87,-22.098 2.088,-0.348 2.958,-1.131 3.219,-2.523 L 34.452,-73.95 c 0,9.222 0.087,17.922 -0.435,26.187 H 2.871 l 0.696,2.436 h 30.276 c -1.74,20.01 -8.091,37.323 -31.755,52.548 l 0.696,1.131 c 32.538,-11.919 41.499,-29.493 44.283,-50.46 2.262,17.4 8.526,38.715 26.796,50.46 1.044,-7.308 4.785,-11.484 11.223,-12.789 l 0.087,-1.044 c -23.49,-8.7 -34.104,-23.925 -37.062,-39.846 z"
                   id="path347" />
              </g>
              <g
                 aria-label="學"
                 transform="matrix(0.99696602,-0.07783797,-0.07783797,-0.99696602,650.5186,299.5566)"
                 id="text190"
                 style="font-weight:900;font-size:87px;font-family:'Noto Serif TC Black';-inkscape-font-specification:NotoSerifTC-Black;fill:#ffffff">
                <path
                   d="m 25.926,-58.812 h -0.348 l -0.174,-6.699 c 4.002,-0.522 7.83,-1.392 10.179,-2.001 0.435,0.174 0.87,0.261 1.218,0.261 1.131,0.696 2.262,1.566 3.48,2.436 -1.827,2.175 -3.828,4.263 -5.829,6.003 -2.262,-2.088 -5.133,-4.35 -5.133,-4.35 z m 43.152,20.445 c -0.696,2.697 -1.479,6.003 -2.088,8.178 l 0.609,0.522 c 4.089,-1.479 10.44,-4.35 14.268,-6.177 1.827,-0.087 2.61,-0.348 3.306,-1.044 l -10.353,-9.918 -3.567,3.48 0.783,-20.793 c 1.74,-0.261 2.436,-0.609 3.132,-1.392 l -10.614,-7.83 -4.35,5.22 h -6.96 l 0.783,2.436 h 6.96 l -0.261,6.873 h -6.525 l 0.783,2.436 h 5.655 l -0.261,6.786 h -6.612 l 0.783,2.436 h 5.655 l -0.174,6.351 H 26.013 l -0.174,-6.351 h 7.743 c 1.131,0 2.001,-0.435 2.175,-1.392 -2.349,-2.436 -6.264,-5.655 -6.264,-5.655 l -3.48,4.611 h -0.261 l -0.087,-6.786 h 7.743 c 1.131,0 1.827,-0.348 2.088,-1.131 2.784,-1.131 5.655,-2.61 8.352,-4.263 1.044,0.957 1.914,2.001 2.61,2.871 4.524,1.305 6.873,-3.48 2.784,-6.873 1.131,-0.957 2.001,-1.914 2.784,-2.871 1.566,0.348 2.436,0.174 2.871,-0.609 l -9.048,-4.611 c -0.696,1.653 -1.74,3.48 -2.958,5.394 -1.653,-0.348 -3.654,-0.522 -5.916,-0.435 l -7.482,-5.568 c -1.305,1.392 -3.741,3.741 -6.264,5.829 l -8.787,-1.479 0.696,29.319 h -0.174 c -0.609,-2.175 -1.653,-4.437 -2.958,-6.699 l -0.957,0.087 c 0.261,4.611 -1.827,7.743 -4.437,8.874 -8.439,4.263 -3.567,14.442 4.002,11.484 4.437,-1.74 5.916,-6.003 4.959,-11.31 z M 46.98,-58.377 c -0.783,1.74 -1.827,3.567 -3.132,5.307 -2.001,-0.522 -4.437,-0.87 -7.308,-0.87 l -0.783,0.783 c 1.566,1.044 3.393,2.349 5.046,3.915 -2.436,2.523 -5.22,4.959 -8.091,6.699 l 0.696,1.218 c 3.741,-0.957 7.482,-2.61 10.875,-4.524 0.957,1.131 1.74,2.175 2.349,3.219 4.872,1.827 7.656,-3.393 3.48,-7.308 1.218,-1.131 2.262,-2.262 3.132,-3.393 1.479,0.348 2.436,0.174 2.871,-0.696 z m 18.357,42.543 H 49.851 v -3.828 c 1.74,-0.261 2.61,-0.87 2.871,-2.088 4.785,-1.392 9.57,-3.045 13.224,-4.35 1.914,-0.087 2.697,-0.348 3.48,-1.131 l -10.788,-9.483 -6.525,6.177 H 21.228 l 0.783,2.436 h 29.145 c -1.479,1.74 -3.219,3.828 -4.959,5.742 l -8.613,-0.696 v 7.221 H 4.524 l 0.696,2.436 h 32.364 v 7.047 c 0,0.957 -0.435,1.305 -1.566,1.305 -1.914,0 -11.919,-0.609 -11.919,-0.609 v 1.131 c 4.785,0.87 6.612,2.175 8.178,4.002 1.479,2.001 1.914,4.698 2.262,8.7 C 48.024,6.96 49.851,2.523 49.851,-5.742 v -7.656 h 29.928 c 1.305,0 2.262,-0.435 2.523,-1.392 -4.002,-3.741 -10.875,-9.396 -10.875,-9.396 z"
                   id="path352" />
              </g>
            </g>
          </g>
        </g>
      </g>
    </g>
  </g>
</svg>
