<svg id="图层_1" data-name="图层 1" xmlns="http://www.w3.org/2000/svg" viewBox="0 0 953.81 784"><defs><style>.cls-1{fill:#fff;}.cls-2{fill:#b22121;}</style></defs><title>UOF_simplified</title><path id="background" class="cls-1" d="M973.94,762.72,923.47,717l50.36-44.48a12,12,0,0,0-7.94-21H862a392,392,0,1,0-722.9,0h-103a12,12,0,0,0-7.95,21L78.49,717,28,762.72a12,12,0,0,0,8.06,20.9h155c.24,0,.47,0,.71,0h30l13.9,4.91a391.59,391.59,0,0,0,529.25.57l15.51-5.48h29.77c.23,0,.47,0,.71,0h155a12,12,0,0,0,8.05-20.9ZM880.08,480q-.24-4.86-.61-9.68Q879.85,475.17,880.08,480Zm-3.19-33.59c.44,3.16.85,6.33,1.21,9.51-.36-3.18-.77-6.35-1.21-9.51s-.92-6.3-1.44-9.43Q876.23,441.71,876.89,446.44Zm-4-23.44q-1.43-7-3.1-13.82Q871.44,416,872.86,423Zm-8-31.94q1.33,4.49,2.56,9-1.23-4.53-2.56-9t-2.78-8.93Q863.52,386.57,864.86,391.06ZM852.49,356q1.75,4.28,3.41,8.62t3.19,8.73q-1.55-4.38-3.19-8.73T852.49,356c-1.16-2.86-2.37-5.7-3.6-8.53C850.12,350.25,851.33,353.09,852.49,356Zm-9.38-21.11q2,4.16,3.9,8.36-1.9-4.21-3.9-8.36t-4.1-8.25Q841.11,330.69,843.11,334.84Zm-6.23-12.33q-2.14-4.08-4.38-8.08Q834.74,318.44,836.88,322.51Zm-6.65-12.07q-3.42-6-7.07-11.8Q826.81,304.46,830.23,310.44Zm-27.9-41.86q9.72,12.69,18.38,26.19-8.64-13.5-18.38-26.19-5.55-7.24-11.45-14.21Q796.77,261.33,802.33,268.58ZM787.91,250.9q-4.47-5.18-9.13-10.18Q783.43,245.73,787.91,250.9Zm-15.43-16.77q-6.36-6.52-13-12.74Q766.12,227.6,772.48,234.13Zm-16.4-15.83q-6.75-6.13-13.79-11.94Q749.34,212.16,756.08,218.3Zm-24.5-20.47c-2.42-1.85-4.85-3.67-7.32-5.47C726.73,194.16,729.16,196,731.58,197.83Zm-11-8.14q-3.73-2.64-7.52-5.21Q716.84,187,720.56,189.69Zm-76.34-42q4.29,1.76,8.52,3.6-4.23-1.85-8.52-3.6t-8.63-3.4Q639.92,145.92,644.22,147.67Zm-287.28,0q4.29-1.75,8.63-3.4-4.33,1.65-8.63,3.4t-8.52,3.6Q352.65,149.42,356.94,147.67Zm-68.82,36.81q-3.8,2.57-7.52,5.21Q284.32,187.05,288.12,184.48Zm-11.23,7.88q-3.69,2.7-7.31,5.47Q273.2,195.05,276.89,192.36Zm-18,14q-7,5.8-13.78,11.94Q251.82,212.17,258.86,206.36Zm-17.14,15q-6.67,6.21-13.05,12.74Q235,227.61,241.72,221.39Zm-19.34,19.33q-4.65,5-9.14,10.18Q217.72,245.72,222.38,240.72Zm-23.55,27.86q5.55-7.24,11.45-14.21-5.9,7-11.45,14.21-9.72,12.69-18.39,26.19Q189.1,281.27,198.83,268.58ZM178,298.64q-3.65,5.82-7.08,11.8Q174.36,304.47,178,298.64Zm-9.34,15.79q-2.24,4-4.39,8.08Q166.41,318.43,168.66,314.43Zm-10.61,20.41q2-4.15,4.1-8.25-2.1,4.1-4.1,8.25t-3.9,8.36Q156.05,339,158.05,334.84Zm-12.79,29.73q1.65-4.33,3.4-8.62t3.61-8.53q-1.86,4.24-3.61,8.53t-3.4,8.62c-1.1,2.9-2.16,5.81-3.2,8.73C143.1,370.38,144.16,367.47,145.26,364.57Zm-9,26.49q1.33-4.49,2.78-8.93-1.44,4.44-2.78,8.93t-2.56,9Q135,395.54,136.3,391.06Zm-4.9,18.12Q129.72,416,128.3,423,129.73,416,131.4,409.18Zm-7.13,37.26q.66-4.74,1.44-9.43-.78,4.69-1.44,9.43T123.06,456Q123.6,451.18,124.27,446.44Zm-2.58,23.91c-.25,3.21-.45,6.44-.62,9.68C121.24,476.79,121.44,473.56,121.69,470.35Zm4.82,96.5q-.83-4.68-1.55-9.4.72,4.72,1.55,9.4c.56,3.12,1.16,6.22,1.79,9.32C127.67,573.07,127.07,570,126.51,566.85ZM135,603.61q-2.55-9-4.68-18.21,2.12,9.2,4.68,18.21,1.29,4.51,2.67,9t2.88,8.88q1.5,4.41,3.1,8.78-1.6-4.37-3.1-8.78t-2.88-8.88Q136.28,608.13,135,603.61Zm15.45,43.89q-1.8-4.26-3.5-8.58,1.69,4.32,3.5,8.58c.57,1.35,1.16,2.7,1.74,4h0C151.6,650.2,151,648.85,150.44,647.5ZM267.53,799.74h0q2.82,2.21,5.69,4.35Q270.36,801.95,267.53,799.74Zm28.23,20Q290,816,284.34,812.1q5.64,3.92,11.42,7.62,3.86,2.47,7.78,4.85Q299.61,822.19,295.76,819.72ZM340,844.09q4.19,1.95,8.42,3.8Q344.17,846,340,844.09Zm12.67,5.63q4.26,1.8,8.57,3.51Q356.94,851.52,352.67,849.72Zm34.91,12.78c3,.93,6,1.81,9,2.67C393.54,864.31,390.55,863.43,387.58,862.5Z" transform="translate(-24.08 -107.58)"/><path class="cls-2" d="M156,689v-.88q-6.48-11.83-12.14-24.16H35.5l60.41,53.37L35.5,772H187.27L156,761Z" transform="translate(-24.08 -107.58)"/><path class="cls-2" d="M965.31,664H856.14Q850.91,675.33,845,686.3V761l-31.27,11H965.31L904.9,717.33Z" transform="translate(-24.08 -107.58)"/><path class="cls-2" d="M172.38,754.05l42.58,15q-9.65-10.2-18.5-21A239.18,239.18,0,0,0,172.38,754.05Z" transform="translate(-24.08 -107.58)"/><path class="cls-2" d="M803.68,747.9q-9.13,11.18-19.13,21.71l44.07-15.56A241.55,241.55,0,0,0,803.68,747.9Z" transform="translate(-24.08 -107.58)"/><path class="cls-2" d="M670.81,733.42a288.72,288.72,0,0,1-340.62,0c-46.7,2.78-88.12,6.8-119.53,12.05q10.23,12.07,21.49,23.38A378.47,378.47,0,0,0,500.25,880h.25A378.48,378.48,0,0,0,768.85,768.85q11.28-11.29,21.49-23.38C758.93,740.22,717.51,736.2,670.81,733.42ZM438.48,813c-2.05,7.94-10.33,13.21-27.38,19-3.07,1.16-7.12,3-11.34,4.8L431.59,845l-2.43,9.39-38.24-9.88,1.78-6.87c5.38-3.5,10.93-6.7,15.68-9.63,11-6.68,15.79-11,17.84-18.92,1.85-7.18-.57-12.61-6.45-14.13a13.89,13.89,0,0,0-3-.44l-3.63,7.12c-2.18,5-5,5.54-7.38,4.93a5.5,5.5,0,0,1-4.13-4.48c3-8.68,12.84-11.26,23.07-8.62C436.78,796.57,440.71,804.35,438.48,813Zm54,20.1c-1.71,20.5-12.12,28.65-23,27.75s-19.68-10.66-18-31.16,12-28.75,22.88-27.84S494.18,812.49,492.47,833.07Zm18.49,28-.58-7.07c3.92-5.07,8.11-9.93,11.62-14.26,8.2-9.94,11.28-15.57,10.6-23.75-.61-7.38-4.69-11.71-10.74-11.21a13.54,13.54,0,0,0-3,.57l-1.08,7.92c-.42,5.41-2.91,6.89-5.34,7.09a5.55,5.55,0,0,1-5.39-2.87c0-9.18,8.42-14.87,18.95-15.74,12.41-1,18.69,5,19.43,13.88.68,8.17-5.4,15.88-19.59,27-2.51,2.11-5.74,5.15-9.12,8.28l32.76-2.73.81,9.66Zm60.47-6.9-1.76-6.87c3-5.66,6.33-11.15,9.07-16,6.41-11.17,8.51-17.24,6.47-25.18-1.84-7.18-6.59-10.77-12.47-9.26a13.88,13.88,0,0,0-2.82,1l.26,8c.5,5.4-1.71,7.27-4.08,7.88a5.53,5.53,0,0,1-5.79-1.93c-1.58-9,5.81-16.06,16-18.69,12.07-3.1,19.27,1.8,21.49,10.43,2,7.95-2.67,16.56-14.8,29.86-2.13,2.5-4.8,6-7.61,9.68L607.28,835l2.41,9.4Z" transform="translate(-24.08 -107.58)"/><path class="cls-2" d="M328.85,213.3l3.66-2.06q5.3-3,6.75-6.52t-1.21-8.26a9,9,0,0,0-5.47-4.56,9.39,9.39,0,0,0-7.32,1.24l-4.89,2.76a1,1,0,0,0-.48,1.53Z" transform="translate(-24.08 -107.58)"/><path class="cls-2" d="M787.34,367.65a14.65,14.65,0,0,0-1.85,6.33,16.61,16.61,0,0,0,5.22,12.56,14.49,14.49,0,0,0,5.8,3.19,18.85,18.85,0,0,0,7.28.51A30.46,30.46,0,0,0,812.2,388a33.79,33.79,0,0,0,7.95-4.53,21.05,21.05,0,0,0,5.14-5.67,14.49,14.49,0,0,0,2.07-6.46,16,16,0,0,0-5.22-12.57,14.62,14.62,0,0,0-6-3.06,21.32,21.32,0,0,0-7.64-.36,33.71,33.71,0,0,0-8.82,2.44,30.74,30.74,0,0,0-7.54,4.36A18.81,18.81,0,0,0,787.34,367.65Z" transform="translate(-24.08 -107.58)"/><path class="cls-2" d="M606.45,206.66a15.4,15.4,0,0,0,5.83,3.83,15.58,15.58,0,0,0,6.85,1.1,14.58,14.58,0,0,0,6.32-2,19.18,19.18,0,0,0,5.41-4.9,30.73,30.73,0,0,0,4.18-7.64,33.87,33.87,0,0,0,2.24-8.87,21.07,21.07,0,0,0-.54-7.63,14.45,14.45,0,0,0-3.23-6,15.93,15.93,0,0,0-12.68-4.93,14.51,14.51,0,0,0-6.38,2.23,21.13,21.13,0,0,0-5.55,5.27,33.8,33.8,0,0,0-4.35,8.05,30.93,30.93,0,0,0-2.07,8.46,18.79,18.79,0,0,0,.68,7.26A14.6,14.6,0,0,0,606.45,206.66Z" transform="translate(-24.08 -107.58)"/><path class="cls-2" d="M753.55,310.74a14.72,14.72,0,0,0-.49,6.58,16.69,16.69,0,0,0,7.71,11.21,14.73,14.73,0,0,0,6.34,1.91,19,19,0,0,0,7.23-1,30.78,30.78,0,0,0,7.75-4,33.7,33.7,0,0,0,6.84-6.08,21.16,21.16,0,0,0,3.85-6.61,14.51,14.51,0,0,0,.69-6.75,16,16,0,0,0-7.71-11.21,14.44,14.44,0,0,0-6.54-1.74,20.78,20.78,0,0,0-7.55,1.23,33.76,33.76,0,0,0-8.12,4.21,30.56,30.56,0,0,0-6.47,5.83A19,19,0,0,0,753.55,310.74Z" transform="translate(-24.08 -107.58)"/><path class="cls-2" d="M156,659.82V634q.81-.57,1.71-1.14l.6-.36,1.28-.77c.26-.14.54-.28.8-.43.42-.22.82-.45,1.26-.67l.89-.44c.44-.22.88-.44,1.34-.65.31-.15.64-.29,1-.43l1.43-.64,1-.43,1.52-.63,1.07-.41,1.65-.62,1.17-.42,1.7-.6,1.25-.41,1.78-.59,1.28-.39,1.91-.59L182,623l2-.57,1.42-.38c.68-.19,1.36-.38,2.06-.56.47-.13,1-.25,1.45-.37.72-.19,1.44-.38,2.18-.56l1.49-.36,2.27-.55,1.55-.35,2.36-.54,1.59-.34,2.45-.53,1.65-.34L207,617l1.68-.32c.87-.17,1.74-.35,2.63-.51l1.69-.32,2.75-.5,1.72-.31,2.83-.49,1.79-.3,2.89-.49,1.83-.29,3-.47,1.89-.29,2.76-.42a288.5,288.5,0,1,1,532.44-.51h.11l3,.45,1.9.28,2.89.46,1.87.29,2.81.46,1.83.3,2.76.48,1.75.3,2.72.49,1.68.31,2.62.5,1.65.32c.86.16,1.7.34,2.54.51l1.61.32,2.45.52,1.56.33,2.32.52,1.56.35,2.21.52,1.52.37c.73.17,1.43.35,2.13.53l1.47.37,2.05.55,1.4.37,2,.56,1.33.38,1.91.58,1.25.38,1.79.58,1.22.39,1.7.59,1.15.4,1.61.6,1.09.41c.52.2,1,.41,1.51.61l1,.42c.48.2.93.4,1.39.61s.67.28,1,.43l1.28.61.93.45c.44.22.85.45,1.27.67l.78.41c.43.24.84.49,1.25.73.2.13.42.25.62.37.6.36,1.16.74,1.7,1.11v26.82c1.77-3.83,3.51-7.69,5.16-11.59A377.17,377.17,0,0,0,880,500.5v-.25c0-1.6,0-3.19,0-4.79q-.11-8-.55-16c0-1-.1-2-.17-3.06-.08-1.33-.17-2.67-.27-4-.06-.92-.13-1.83-.21-2.74s-.14-1.76-.22-2.64c-.12-1.39-.25-2.79-.39-4.18-.08-.88-.17-1.76-.27-2.63q-.33-3.31-.75-6.61c-.11-.91-.22-1.83-.35-2.74-.07-.63-.16-1.27-.25-1.9-.17-1.31-.36-2.61-.55-3.91s-.35-2.39-.54-3.58l-.24-1.55c-.17-1-.33-2-.51-3.06s-.34-2.05-.53-3.06c-.2-1.16-.41-2.32-.63-3.47-.16-.87-.32-1.73-.5-2.6-.08-.48-.18-1-.28-1.43-.15-.81-.31-1.63-.49-2.44s-.35-1.72-.54-2.58-.3-1.43-.46-2.14-.28-1.3-.43-1.94c-.25-1.15-.51-2.3-.79-3.45,0-.1,0-.18-.06-.27-.25-1.07-.5-2.14-.76-3.2s-.51-2.07-.78-3.11q-.72-2.88-1.5-5.74c-.36-1.35-.74-2.7-1.12-4-.42-1.51-.86-3-1.31-4.53-.33-1.13-.67-2.26-1-3.38-.17-.58-.34-1.15-.53-1.73-.4-1.31-.82-2.61-1.24-3.91-.48-1.5-1-3-1.48-4.48s-.93-2.75-1.42-4.12q-.84-2.42-1.71-4.81-2.45-6.68-5.14-13.27-.88-2.21-1.82-4.39A379.59,379.59,0,0,0,150.84,648.23C152.49,652.13,154.23,656,156,659.82ZM840.07,413.88a4.72,4.72,0,0,0,2-1.3,3.29,3.29,0,0,0,.7-2,18.87,18.87,0,0,0-.23-3.16l2.54-.52,4.52,21.84-2.53.52a18.3,18.3,0,0,0-1.09-3.37,3.78,3.78,0,0,0-1.56-1.76,4.55,4.55,0,0,0-2.47-.44,26.85,26.85,0,0,0-3.9.57l-26.52,5.5a14.93,14.93,0,0,0-4.23,1.44,5,5,0,0,0-2.21,2.4,8.92,8.92,0,0,0-.53,3.81,37.4,37.4,0,0,0,.8,5.58,36.44,36.44,0,0,0,1.71,6.05,10.07,10.07,0,0,0,2.54,3.8,9.09,9.09,0,0,0,3.88,2,24.54,24.54,0,0,0,5.8.58l.52,2.53-14.58,2-9-43.61,2.54-.52a18.24,18.24,0,0,0,1.08,3.34,4,4,0,0,0,1.5,1.8,4.25,4.25,0,0,0,2.35.5,20.59,20.59,0,0,0,3.66-.49l29.24-6.06A24.92,24.92,0,0,0,840.07,413.88Zm-34.31-68.52a25.81,25.81,0,0,1,9.83,2.25,27.5,27.5,0,0,1,8.43,6,29.35,29.35,0,0,1,6,9.26,29,29,0,0,1,2.31,10.8,27.34,27.34,0,0,1-1.71,10.2,25.65,25.65,0,0,1-5.34,8.55,24.5,24.5,0,0,1-8.61,5.89,22.69,22.69,0,0,1-9.9,1.77,25.37,25.37,0,0,1-9.63-2.37,28,28,0,0,1-8.32-6,30.53,30.53,0,0,1-8.28-19.94,28.27,28.27,0,0,1,1.58-10.18,24.78,24.78,0,0,1,5.12-8.49,23,23,0,0,1,8.25-5.74A24.52,24.52,0,0,1,805.76,345.36ZM777,285.28a27.49,27.49,0,0,1,9.49,4.1,30.49,30.49,0,0,1,12.31,17.89,27.61,27.61,0,0,1,.44,10.33,25.75,25.75,0,0,1-3.45,9.48,24.47,24.47,0,0,1-7.2,7.54,22.86,22.86,0,0,1-9.32,3.79,25.47,25.47,0,0,1-9.92-.32,28.08,28.08,0,0,1-9.38-4.17,30.62,30.62,0,0,1-12.24-17.79,28.34,28.34,0,0,1-.56-10.29,24.52,24.52,0,0,1,3.24-9.37,23.08,23.08,0,0,1,6.88-7.32,24.45,24.45,0,0,1,9.63-4A25.52,25.52,0,0,1,777,285.28Zm-67.67-15.87a4.28,4.28,0,0,0,2.23-.87,21.68,21.68,0,0,0,2.79-2.43L735.47,245a23.57,23.57,0,0,0,2.41-2.75,4.71,4.71,0,0,0,.94-2.17,3.33,3.33,0,0,0-.53-2.08,18.75,18.75,0,0,0-1.93-2.51l1.83-1.83,28,27.92-9.08,10.21-1.92-1.92a21.68,21.68,0,0,0,2.51-4.12,7.88,7.88,0,0,0,.7-3.68,8.14,8.14,0,0,0-1.26-3.68,23,23,0,0,0-3.35-4.06L747.49,248a1,1,0,0,0-1.6-.05l-13.18,13.24a52.21,52.21,0,0,0,4.78,4.31,9.81,9.81,0,0,0,3.71,1.91,5.23,5.23,0,0,0,3.31-.3,15.91,15.91,0,0,0,3.65-2.39l1.7,1.69-14.28,14.33-1.7-1.68a17.49,17.49,0,0,0,2.3-3.87,5.26,5.26,0,0,0,.25-3.31,10.26,10.26,0,0,0-1.93-3.61,50.48,50.48,0,0,0-4.21-4.66l-8.85,8.89a19.43,19.43,0,0,0-2.58,3,3.89,3.89,0,0,0-.7,2.59,6.17,6.17,0,0,0,1.21,2.8,34.71,34.71,0,0,0,3.23,3.77l-1.82,1.83-18.23-18.16,1.83-1.83a17.93,17.93,0,0,0,2.74,2.19A4,4,0,0,0,709.37,269.41Zm-60.45-41.73a4,4,0,0,0,2.33.15,4.35,4.35,0,0,0,2-1.37,20.75,20.75,0,0,0,2.16-3L671.05,198a22.76,22.76,0,0,0,1.73-3.23,4.69,4.69,0,0,0,.41-2.33,3.35,3.35,0,0,0-1-1.9,19.92,19.92,0,0,0-2.45-2l1.35-2.2,33.68,20.75-6.49,12L696,217.73a20.43,20.43,0,0,0,1.5-4.59,7.92,7.92,0,0,0-.16-3.74,8,8,0,0,0-2.07-3.29,22.87,22.87,0,0,0-4.19-3.19l-7.59-4.68a1,1,0,0,0-1.57.33l-9.8,15.9a52.92,52.92,0,0,0,5.64,3.1,9.68,9.68,0,0,0,4,1,5.28,5.28,0,0,0,3.16-1.05,15.67,15.67,0,0,0,3-3.16l2,1.26-10.61,17.22-2-1.25a17.42,17.42,0,0,0,1.35-4.29,5.27,5.27,0,0,0-.52-3.29,10.36,10.36,0,0,0-2.7-3.07,48.88,48.88,0,0,0-5.17-3.56l-6.58,10.67a19.91,19.91,0,0,0-1.81,3.56,3.86,3.86,0,0,0-.09,2.67,6.09,6.09,0,0,0,1.83,2.46,33.12,33.12,0,0,0,4,2.92l-1.35,2.2-21.91-13.49,1.36-2.2A17.41,17.41,0,0,0,648.92,227.68ZM594.14,181a24.47,24.47,0,0,1,5.69-8.75,25.43,25.43,0,0,1,8.43-5.53,27.49,27.49,0,0,1,10.15-1.95,30.44,30.44,0,0,1,20.24,7.87,27.55,27.55,0,0,1,6.18,8.29,25.67,25.67,0,0,1,2.47,9.78A24.41,24.41,0,0,1,645.59,201a22.64,22.64,0,0,1-5.58,8.37,25.25,25.25,0,0,1-8.37,5.31,28,28,0,0,1-10.11,1.83,30.65,30.65,0,0,1-20.12-7.82,28.44,28.44,0,0,1-6.25-8.19,24.81,24.81,0,0,1-2.59-9.57A23,23,0,0,1,594.14,181Zm-81.42-38.46,21.59,2.32L534,147.4a9.86,9.86,0,0,0-3.85.1,1.67,1.67,0,0,0-1.26,1.43,4.2,4.2,0,0,0,.22,1.58c.2.63.51,1.49,1,2.58l7.31,18.53.26,0L547.22,159q2.5-3.37,3.53-5.05a7,7,0,0,0,1.14-2.71,1.51,1.51,0,0,0-.83-1.61,10.9,10.9,0,0,0-3.65-.82l.27-2.57L563.81,148l-.27,2.57a6.24,6.24,0,0,0-5.22,1.68,28.08,28.08,0,0,0-3.22,3.36q-1.83,2.19-4.42,5.74L539.57,176.4l-.7,6.56a35.53,35.53,0,0,0-.26,5.17,6.5,6.5,0,0,0,.71,3,3.51,3.51,0,0,0,1.89,1.54,14.65,14.65,0,0,0,3.3.68l-.27,2.57-22.88-2.45.27-2.58a14,14,0,0,0,3.35,0,3.75,3.75,0,0,0,2.22-1.06,5.85,5.85,0,0,0,1.36-2.69,30.91,30.91,0,0,0,.81-4.82l.64-5.91L519.24,151.4a28.84,28.84,0,0,0-1.47-3,7.76,7.76,0,0,0-1.46-1.88,4.86,4.86,0,0,0-1.71-1,9.63,9.63,0,0,0-2.16-.46Zm-13.3-.2,1.69,14.13-2.77.2a20.15,20.15,0,0,0-1.32-5.18,8.3,8.3,0,0,0-2.34-3.2,7.48,7.48,0,0,0-3.42-1.5,18.5,18.5,0,0,0-4.55-.15c-1.67.12-3,.25-4,.39a12.32,12.32,0,0,0-2.3.49,1.82,1.82,0,0,0-1,.69,1.65,1.65,0,0,0-.19,1L481.67,183a18.47,18.47,0,0,0,.55,3.53,4.58,4.58,0,0,0,1.37,2.32,5.72,5.72,0,0,0,2.74,1.23,19,19,0,0,0,4.62.21l.19,2.58-27,2-.19-2.58a19.27,19.27,0,0,0,4.6-.89,5.89,5.89,0,0,0,2.57-1.61,4.54,4.54,0,0,0,1.05-2.51,18.86,18.86,0,0,0,0-3.56l-2.48-33.78a2,2,0,0,0-.29-1,1.64,1.64,0,0,0-1-.55,9.82,9.82,0,0,0-2.06-.17c-.88,0-2,.05-3.46.15a42.84,42.84,0,0,0-4.43.56,8.21,8.21,0,0,0-3.64,1.56,7.67,7.67,0,0,0-2.38,3.41,15.57,15.57,0,0,0-.61,6.17l-2.52.19L449,146Zm-65.93,7,.56,2.53a12.06,12.06,0,0,0-3,1.23,3.44,3.44,0,0,0-1.48,1.82,7,7,0,0,0-.24,2.93,36.84,36.84,0,0,0,.75,4.43l5.64,25.37A40.85,40.85,0,0,0,437,192.3a5.69,5.69,0,0,0,1.55,2.48,3.73,3.73,0,0,0,2.3.84,16.14,16.14,0,0,0,3.53-.35l.56,2.52-22.52,5-.56-2.52a16,16,0,0,0,3.34-1.17,3.58,3.58,0,0,0,1.7-1.74,6.12,6.12,0,0,0,.36-2.89,35.68,35.68,0,0,0-.8-4.76l-5.63-25.36a34.77,34.77,0,0,0-1.2-4.34,7,7,0,0,0-1.46-2.56,3.43,3.43,0,0,0-2.11-1,12.69,12.69,0,0,0-3.25.16l-.56-2.52Zm-66.87,27.54a12.67,12.67,0,0,1,1.59-5.19,15,15,0,0,1,3.79-4.35,19.82,19.82,0,0,1,5.77-3.15,18.32,18.32,0,0,1,6.19-1.14,22.9,22.9,0,0,1,6.46,1v-3.43l1.46-.53,5.41,12.89-2.37.85a16.37,16.37,0,0,0-7.32-6,11.44,11.44,0,0,0-8.13-.05,10.19,10.19,0,0,0-5.44,4.06,6.52,6.52,0,0,0,.64,7.75,5.35,5.35,0,0,0,2.27,1.34,17.27,17.27,0,0,0,3.83.71c1.57.15,3.54.23,5.93.23a62.05,62.05,0,0,1,8.46.69,23.34,23.34,0,0,1,6.22,1.81,13.68,13.68,0,0,1,4.29,3,12.45,12.45,0,0,1,2.6,4.35,12.81,12.81,0,0,1,.71,6.14,13.94,13.94,0,0,1-2.16,5.72,19.53,19.53,0,0,1-4.68,4.93,26.15,26.15,0,0,1-6.95,3.68,21.5,21.5,0,0,1-6.93,1.37,24.91,24.91,0,0,1-7.19-1.08l.1,4.09-1.46.53-6.51-15.18,2.37-.85a15.36,15.36,0,0,0,7.9,7.42,14.47,14.47,0,0,0,10.5-.05,15.82,15.82,0,0,0,3.93-2,10.56,10.56,0,0,0,2.67-2.72,7.66,7.66,0,0,0,1.21-3.12,7.43,7.43,0,0,0-1.75-5.69,5.83,5.83,0,0,0-2.48-1.44,19,19,0,0,0-4.23-.77c-1.73-.16-3.93-.25-6.6-.3q-8.1-.17-12.82-2.55a12.83,12.83,0,0,1-6.49-7.31A13,13,0,0,1,366.62,176.88ZM323.48,190q8.16-4.6,14.23-4.24a10.36,10.36,0,0,1,9,5.48,13.34,13.34,0,0,1,1.72,9.35q-.93,4.68-6.23,9.08l21.51,7.6a10.2,10.2,0,0,0,4.56.58,10.69,10.69,0,0,0,4.23-1.31l1.27,2.25-13.34,7.53-23.62-9.23a11.8,11.8,0,0,0-3.73-.9,4.58,4.58,0,0,0-2.28.51l6.23,11A19.6,19.6,0,0,0,339.2,231a4.1,4.1,0,0,0,2.28,1.42,5.53,5.53,0,0,0,3-.4,34.33,34.33,0,0,0,4.45-2.18l1.27,2.25-22.35,12.62-1.27-2.25a17.12,17.12,0,0,0,2.87-1.95,3.9,3.9,0,0,0,1.26-2,4.52,4.52,0,0,0-.24-2.46,22.12,22.12,0,0,0-1.6-3.36l-14.69-26a28.44,28.44,0,0,0-2-3.08,4.36,4.36,0,0,0-1.82-1.5,3.18,3.18,0,0,0-2.14-.05,18.84,18.84,0,0,0-3,1.2L304,201Zm-36.75,23.35,8.44,9.47L293,224.57a15.49,15.49,0,0,0-3.81-2.67,7.24,7.24,0,0,0-3.61-.71,9.39,9.39,0,0,0-3.91,1.32,33.74,33.74,0,0,0-4.72,3.37l-5.62,4.66q-1.29,1.08-1.32,1.65a3.24,3.24,0,0,0,1,1.76l10.48,12.64c2.12-1.76,3.78-3.25,5-4.45a10.07,10.07,0,0,0,2.33-3.32,4.47,4.47,0,0,0,0-3.08,19.1,19.1,0,0,0-2-3.81l1.84-1.53L300.73,245l-1.84,1.53a18.15,18.15,0,0,0-3.44-2.53,4.73,4.73,0,0,0-3.1-.49,9.6,9.6,0,0,0-3.62,1.66c-1.34.91-3.06,2.24-5.14,4l8.5,10.25a9.79,9.79,0,0,0,2.65,2.34,4.87,4.87,0,0,0,2.88.59,8.64,8.64,0,0,0,3.42-1.25A30.84,30.84,0,0,0,305.3,258a31.16,31.16,0,0,0,4.47-4.38,10.06,10.06,0,0,0,2.1-4.09,9.16,9.16,0,0,0-.12-4.4,25.09,25.09,0,0,0-2.14-5.32l2-1.65,8.66,12.06-33.73,28-1.65-2a17.22,17.22,0,0,0,2.43-2.53,4,4,0,0,0,.9-2.16,4.4,4.4,0,0,0-.66-2.31,21.16,21.16,0,0,0-2.16-3l-19.06-23a23.37,23.37,0,0,0-2.51-2.66,4.66,4.66,0,0,0-2.08-1.14,3.26,3.26,0,0,0-2.12.33,19.51,19.51,0,0,0-2.68,1.68l-1.65-2Zm-61.91,59.52,2,1.71c-.69.88-1.24,1.64-1.66,2.27a6.41,6.41,0,0,0-.83,1.63,1.87,1.87,0,0,0,0,1.2,2.4,2.4,0,0,0,.74,1,8.74,8.74,0,0,0,1.84,1.13c.77.36,1.74.75,2.9,1.17l28.32,10.32L247.13,273c-1.09-2-2-3.6-2.69-4.83s-1.3-2.24-1.79-3a18.38,18.38,0,0,0-1.25-1.73,8.84,8.84,0,0,0-1.06-1.06,2,2,0,0,0-2.3-.42,14.44,14.44,0,0,0-3.37,3.25l-2-1.67,11.82-14,2,1.67q-3.47,4.1-.78,9.05l21.64,40.44-3.08,3.66-38.83-12.49c-2.1-.64-3.87-1.12-5.31-1.42a12.14,12.14,0,0,0-3.76-.3,6.23,6.23,0,0,0-2.83,1,11.12,11.12,0,0,0-2.42,2.22l-2-1.7Zm-21.94,29.36,2.19,1.36a12.52,12.52,0,0,0-1.22,3,3.48,3.48,0,0,0,.27,2.34,6.88,6.88,0,0,0,1.92,2.22,36.6,36.6,0,0,0,3.7,2.56l22.07,13.71a42.13,42.13,0,0,0,4.21,2.35,5.65,5.65,0,0,0,2.85.63,3.72,3.72,0,0,0,2.22-1.06,16.51,16.51,0,0,0,2.21-2.77l2.2,1.36-12.18,19.61-2.19-1.37a16.73,16.73,0,0,0,1.5-3.21,3.6,3.6,0,0,0,0-2.43,6.11,6.11,0,0,0-1.82-2.27,34.71,34.71,0,0,0-4-2.77l-22.07-13.71a35.94,35.94,0,0,0-3.94-2.17,7,7,0,0,0-2.85-.75,3.51,3.51,0,0,0-2.21.8,12.7,12.7,0,0,0-2.15,2.43l-2.2-1.36ZM167.61,370.1l44.56-9.42.1-.24-23-9.75a46.14,46.14,0,0,0-4.76-1.77,6.24,6.24,0,0,0-3.09-.25,3.42,3.42,0,0,0-2,1.37,17.67,17.67,0,0,0-1.71,3l-2.38-1,7.49-17.68,2.38,1a19,19,0,0,0-1.11,3.7,4.14,4.14,0,0,0,.33,2.6,5.51,5.51,0,0,0,2.15,2.07,34.8,34.8,0,0,0,4.3,2.1l35.48,15-3.38,8-48.72,10.46-.11.24,25.6,10.84a44.8,44.8,0,0,0,4.79,1.78,6.21,6.21,0,0,0,3.06.24,3.39,3.39,0,0,0,2.05-1.37,16.42,16.42,0,0,0,1.71-3l2.38,1-7.48,17.68-2.39-1a18.47,18.47,0,0,0,1.12-3.7,4.14,4.14,0,0,0-.34-2.6,5.53,5.53,0,0,0-2.12-2.06,36.14,36.14,0,0,0-4.33-2.11L174.17,385.1a32.25,32.25,0,0,0-4.24-1.52,6.6,6.6,0,0,0-3-.2,3.84,3.84,0,0,0-2.14,1.31,15.2,15.2,0,0,0-1.88,3l-2.38-1Zm-19.25,83.48a13,13,0,0,0-1,3.24l-2.54-.51,4.56-22.76,2.54.51a19.76,19.76,0,0,0-.5,4,3.61,3.61,0,0,0,.71,2.19,4.13,4.13,0,0,0,1.09,1,8.39,8.39,0,0,0,1.81.83c.77.26,1.71.53,2.84.8s2.53.57,4.17.9l16.61,3.33q7.23,1.44,11.29-.93t5.36-8.79q2.61-13.05-11.9-16l-14.64-2.94c-1.77-.35-3.3-.63-4.58-.82a29.53,29.53,0,0,0-3.3-.33,11,11,0,0,0-2.33.13A4.89,4.89,0,0,0,157,418a5.47,5.47,0,0,0-1.76,2,14.73,14.73,0,0,0-1.18,3.78l-2.54-.5,4.12-20.54,2.53.51a14.89,14.89,0,0,0-.37,3.68,3.72,3.72,0,0,0,.84,2.22,4.58,4.58,0,0,0,1.33,1.12,12.63,12.63,0,0,0,2.17,1c.89.31,2,.62,3.21.94s2.77.66,4.55,1l13.43,2.7a32.28,32.28,0,0,1,9,3,15.05,15.05,0,0,1,5.57,4.91,14.85,14.85,0,0,1,2.34,7.09,34.56,34.56,0,0,1-.73,9.58q-2.05,10.2-7.27,14.06t-14.61,2l-17.36-3.48c-1.65-.33-3-.59-4.17-.77s-2.08-.31-2.86-.38a10.61,10.61,0,0,0-1.94,0,5,5,0,0,0-1.34.29A2.92,2.92,0,0,0,148.36,453.58Z" transform="translate(-24.08 -107.58)"/><path class="cls-2" d="M474.2,804.49c-4.63-.38-8.95,5-10.72,26.16s1.62,27,6.26,27.42,9.12-5,10.87-26C482.37,811,478.84,804.88,474.2,804.49Z" transform="translate(-24.08 -107.58)"/><path class="cls-2" d="M593.15,386c2.29,2.93,4.41,6.89,8.34,7.72,4.88,1,7.29-2.21,6.87-6.71-.45-5.09-5-11.31-8.34-15-10.38-11.39-35.21-18.13-50.14-14.44-2.1,1.27-3.17,1.65-3.78,4.33-.84,3.76,1.13,6.1,4.75,6.93h8.09c7,.65,17.4,3.49,23.3,7.21A38.2,38.2,0,0,1,593.15,386Z" transform="translate(-24.08 -107.58)"/><path class="cls-2" d="M443.46,524.39c-6.86-3.55-18.71-4.39-26.34-3.42-12.25,2.28-20.48,7-27.26,17.68-2.42,3.83-5.95,13.2,1,14.76,5.66,1.28,8.22-4,11-7.72A29.85,29.85,0,0,1,413.07,536c5.41-2.7,12.4-3.09,18.23-1.63,4.33,1.08,10.8,4.24,15,1.92C452.59,532.91,448,526.75,443.46,524.39Z" transform="translate(-24.08 -107.58)"/><path class="cls-2" d="M641.18,476.77a92.52,92.52,0,0,0,15.34-29c10.26-31.24,2.56-69.57-19.64-94.07-18.09-20-45.36-31.68-72.35-31.68l-6,.7h-8.75c-16.4,1.71-37.06,8.16-52.19,14.64-45.11,19.34-83.35,52.26-112.78,91-15.69,20.65-28.88,38.58-37.16,66a154.91,154.91,0,0,0-3.85,73.32c2.37,12.58,5.62,20.11,10.12,30.23.52,1.16.95,2.18,1.35,3.1l.68,0,3.82-.21,2.93-.15,3.82-.2,3-.15.66,0-4.78-9.3c-6.05-12.67-12.2-33.86-12.37-47.87v-7.23c0-20,10.36-50,20.6-67.05l12.3-18c28.13-40.64,69.74-79.05,115.16-99.77,33.43-15.25,76.29-24.48,108.78-2.11a93.38,93.38,0,0,1,19.52,17.81,77.5,77.5,0,0,1,13.67,24c4.23,11.46,5.22,18.94,5.08,31-.17,14.54-7.66,32.45-16.27,44-12.9,17.37-24,21.62-24,46,0,18.66,3.84,24.45.57,45a142.38,142.38,0,0,1-8.49,30l-5.68,11.7h0l-2.69-.08,2.69.08h0l.55,0,3.83.12,3.15.11,3.8.14,3.17.11,1,0c1.94-4.7,3.75-10.14,4.46-12.24,4.61-13.63,6.51-24.83,7.9-39l.75-7-1.93-24c-.07-6.23-.4-11.09,2.11-17C626.22,492.38,636.06,483.48,641.18,476.77Z" transform="translate(-24.08 -107.58)"/><path class="cls-2" d="M571.66,504.43c-8.6-12.11-26.19-20-41.07-17.59-6.9,2.33-8.74,8.07-2.94,11.24,3.14,1.71,8.31,1.11,12,1.78a33.88,33.88,0,0,1,18,9.69c7.21,7.53,8.48,20.05,16.34,18.66C584.25,526.41,574.71,508.72,571.66,504.43Z" transform="translate(-24.08 -107.58)"/><path class="cls-2" d="M496.29,417.88c-1.08-3.84-5.86-6.51-9.28-8-8.89-4-16.71-4.92-26.33-3.61-8.61,1.92-18.43,6.28-23.66,13.63-2.67,3.77-5.6,12.48,1.42,13.72,3.72.65,6.62-2.4,9.07-4.66,4.15-3.84,8.58-7.83,14.18-9.42,13-3.72,19,5.28,28.36,5.24C494,424.74,497.48,422.13,496.29,417.88Z" transform="translate(-24.08 -107.58)"/><rect class="cls-2" x="307.09" y="647.26" width="9.66" height="7.05" transform="translate(-77.53 -79.15) rotate(-4.81)"/><rect class="cls-2" x="306.29" y="637.55" width="9.66" height="7.31" transform="translate(-76.74 -79.24) rotate(-4.81)"/><rect class="cls-2" x="283.48" y="639.43" width="10.7" height="7.31" transform="translate(-76.98 -81.1) rotate(-4.81)"/><path class="cls-2" d="M684.67,639.76s2.68,2.48,4.77,4.74a55.27,55.27,0,0,0,6.28-5.53c-1.14-1-2.2-1.92-3.28-2.7a3.46,3.46,0,0,1-1.19-.36,88.84,88.84,0,0,1-10.3,1.2l-.35,6.69.34,0Z" transform="translate(-24.08 -107.58)"/><path class="cls-2" d="M296,664.48l-.53-6.33-10.66.9.07.87c.08,1-4.49,3.69-9.15,4.35l4.58,1.53Z" transform="translate(-24.08 -107.58)"/><path class="cls-2" d="M279.79,674.14c3.82-.23,9.73-.64,16.92-1.34l-.5-5.89-16.91,1.42Z" transform="translate(-24.08 -107.58)"/><path class="cls-2" d="M308.14,663.46l15.44-1.3,4.48-5.88a25.81,25.81,0,0,1-8.42,2.72l-2.16.18-.25-2.86-9.62.81Z" transform="translate(-24.08 -107.58)"/><rect class="cls-2" x="284.29" y="649.14" width="10.7" height="7.05" transform="translate(-77.73 -81.03) rotate(-4.81)"/><path class="cls-2" d="M167,744.28c23.13-7.65,61.69-13.83,115.12-18.43,60.7-5.22,138.25-8.1,218.38-8.1s157.68,2.88,218.38,8.1c53.43,4.6,92,10.78,115.12,18.43v-105c-12.28-6.07-42.4-15.13-116.15-22.25-59.65-5.76-136-8.94-215-8.94-80,0-157.34,3.25-217.8,9.16-32.11,3.13-59,6.94-79.92,11.33-20.29,4.26-31.73,8.38-38.18,11.63Zm564.09-51L701.26,691l-.6,7.63c-.64,8.24-2.81,12.52-16.35,12.69,0-4-.26-6.74-1.57-8.85-1.42-2-3.14-3.39-7.84-4.63l.08-1.13s9.93,1.39,11.84,1.54c1.13.09,1.59-.23,1.66-1.18l.55-7-32.26-2.52-.51-2.48,33,2.57.56-7.19,8.53,1.36c1.89-1.77,3.78-3.72,5.4-5.34l-29.06-2.27-.59-2.49,30.79,2.41,7-5.65,10,10.29c-.84.72-1.64.92-3.56.86-3.74,1-8.64,2.29-13.52,3.31-.35,1.19-1.27,1.73-3,1.85l-.3,3.82,15.44,1.21,6.72-7.86s6.41,6.18,10.11,10.22C733.38,693,732.4,693.4,731.09,693.3Zm-71-30.76c2.69-.93,5-3.89,5.12-8.5l1,0a29.77,29.77,0,0,1,2.42,6.91l.18,0,1.59-29.29,8.64,2.16a75.24,75.24,0,0,0,6.7-5.32l7,6.13a24.24,24.24,0,0,1,5.86.9,38.67,38.67,0,0,0,3.37-5.15l8.66,5.3c-.5.75-1.38.85-2.91.38a21.58,21.58,0,0,1-3,2.65c3.81,3.7,1.1,8.29-3.31,6.63a24.9,24.9,0,0,0-2.38-3.06,57.73,57.73,0,0,1-8.66,3.6c-.32.76-1,1-2.17,1l-7.72-.6-.44,6.77.26,0,3.83-4.32s3.65,3.51,5.81,6.12c-.25.94-1.15,1.31-2.28,1.22l-7.72-.6-.32,6.34,33.91,2.65.67-6.32-5.64-.44-.59-2.49,6.59.52.79-6.75-5.64-.44-.59-2.49,6.51.51.79-6.83-6.94-.54-.59-2.49,6.94.54,4.74-4.86,10,8.63a4.43,4.43,0,0,1-3.23,1.14l-2.41,20.67,3.83-3.19,9.55,10.69c-.75.64-1.55.84-3.38.78-4,1.53-10.51,3.9-14.7,5l-.57-.57c.78-2.12,1.82-5.35,2.72-8L669,663.41c.54,5.36-1.26,9.5-5.82,10.89C655.43,676.66,651.37,666.13,660.11,662.54Zm40.22-1a24.3,24.3,0,0,0-2.09-3.4,45.79,45.79,0,0,1-11.2,3.67l-.6-1.27a41.54,41.54,0,0,0,8.59-6.05,37.85,37.85,0,0,0-4.73-4.29l.85-.72a29,29,0,0,1,7.21,1.43,28.25,28.25,0,0,0,3.54-5l8.77,5c-.5.84-1.47.94-2.92.47a26.7,26.7,0,0,1-3.39,3.14C708.22,658.79,705,663.78,700.33,661.58Zm-174.91-9.91-.65-2.45,31.14.63c.69-8.25.78-17,1-26.17l17.28,1.92c-.29,1.39-1.18,2.15-3.27,2.46-.33,7.65-.57,15-1.32,22.07l16.78.34,7.41-9s8,6.25,12.75,10.44c-.28,1-1.33,1.36-2.64,1.34L570,652.58c2.63,16,12.94,31.41,36.24,40.58l-.11,1.05c-6.46,1.17-10.28,5.27-11.48,12.55-18-12.11-23.85-33.55-25.76-51-3.21,20.91-12.52,38.29-45.29,49.55l-.68-1.15c24-14.74,30.67-31.92,32.82-51.88ZM308.66,711.09l-11.1.93c-11.1.94-14-.56-14.66-8.19l-1.39-16.56L297,687.1c-.07,1.23-.8,2-2.59,2.4l.95,11.36c.1,1.13.47,1.45,3.42,1.2l10.58-.89c2.94-.25,6.15-.52,7.71-.74a3.51,3.51,0,0,0,2.84-1.46c1.09-1.57,2.4-4.74,4.23-10l.87-.07,1.07,9.69c3.67,1,4.64,2.23,4.82,4.31C331.28,708.05,326.6,709.58,308.66,711.09Zm-9.29-27.42.65-.49c24.35,2,15.4,21.14,5.38,14.13A28.5,28.5,0,0,0,299.37,683.67Zm173.55-3.36c-5.75,3.27-9.12,7.79-9.51,13.11-10.87-6.61-18.72-18.34-23.58-31.89l.59,24.18,4.13-5.5s5.93,4.3,9.49,7.35c-.15,1-1.1,1.41-2.32,1.44l-11.22.28.32,13.22c0,1-5.39,3.61-10.26,3.73l-2.26,0-.41-16.7-12.52.3-.76-2.41,13.22-.32-.34-14.36c-7.61,9.15-18.31,16.72-31,22.34l-.72-.94c10.85-8.45,19.5-21.62,24.17-33.31l-22.17.54L397,659l30.09-.73-.25-10.52,15.86,1c-.14,1.23-.73,2.2-3.15,2.61l.16,6.6,15.65-.37,5.9-8.15s7.08,5.22,11.26,8.77c-.24,1-1.18,1.43-2.4,1.46l-28.62.69c7,10.45,20.06,16,31.52,18.64Zm-60.75-39.95.68-.45c21,1.14,10.76,16.62,2.42,10A17.53,17.53,0,0,0,412.17,640.36Zm34.44-.75.69-.45c21.75-.18,12.23,16.59,3.2,10A15.86,15.86,0,0,0,446.61,639.61Zm-41.45-15.53L421.38,629c-.32,1.13-1.52,1.86-3.53,1.82a38.51,38.51,0,0,1-2.76,4.51l7.66-.19,4.87-7s4.8,3.8,8.18,6.85a86.92,86.92,0,0,0,2.93-12l15.87,5.28c-.4,1.05-1.61,1.78-3.61,1.74a43.13,43.13,0,0,1-3.37,4.52l10.52-.26,5.31-7.26s6.29,4.72,10.11,7.94c-.23,1-1.09,1.41-2.4,1.45l-25.83.62a42.78,42.78,0,0,1-13.27,9.11l-.88-.67a54.68,54.68,0,0,0,3.8-8.19h-.52l-21,.51a58,58,0,0,1-21.07,17.66l-.8-.77C397,647.51,402.57,635.89,405.16,624.08ZM334.37,704.3a29.16,29.16,0,0,0-6.79-16.37l.65-.49C355,690.87,345.27,712.46,334.37,704.3Zm-67.81-43.19,6.65,2.23-2.5-29.65,13.06,3.7,30.78-2.58,4.88-6.35,12,7.46a6.06,6.06,0,0,1-3.31,2.2l1.43,17c0,.18-.4.47-1.06.88l11.79,7.3a5.62,5.62,0,0,1-3.31,2.2l.94,11.1c.5,6-1.12,9.61-13.79,11.55-.5-2.84-.93-4.9-2.43-6.09-1.32-1.11-2.88-2-7.45-2.42l-.08-1s8.36-.18,10.1-.32c1.21-.11,1.52-.65,1.43-1.7l-1-12.13-16.3,1.37.49,5.89,4.77-.4a18.15,18.15,0,0,0-4-4.29l.65-.58c20.83-1.49,15.1,15.41,6.23,10.66a15,15,0,0,0-1.44-3.55c-6.19,2.18-14.6,4.9-26.52,8.52a3.5,3.5,0,0,1-2.28,2l-6.4-9.67L281,688.36c0,.43-1.65,2.23-4.86,3.46,5.17,9.61,3.09,17-1.24,19.49-3.07,1.92-7.43,1-8.79-2.66-1.16-3.49.79-6.27,3.8-7.83,2.5-1.44,5.09-4.88,4.86-8.62a12.76,12.76,0,0,1-3.26.62l-2.26.19-2-23.67-2.51.22-1-2.37,3.3-.27Z" transform="translate(-24.08 -107.58)"/><path class="cls-2" d="M369.51,600.25l3.78-.18-3.12.15Z" transform="translate(-24.08 -107.58)"/></svg>